<svg xmlns="http://www.w3.org/2000/svg" xmlns:xlink="http://www.w3.org/1999/xlink" width="500" height="500" viewBox="0 0 500 500"><defs><clipPath id="a"><rect width="500" height="500" fill="none"/></clipPath></defs><g clip-path="url(#a)"><path d="M185.463,265.087q-2.152-2.854-4.27-5.593l-.1.037q-.237,2.841-.481,7t-.45,6.568l0,.03,9.278-2.792-.018-.023q-1.8-2.374-3.955-5.228" transform="translate(119.992 172.832)" fill="#fff"/><path d="M93.9,246.835a9.424,9.424,0,0,0-5.771-3.872,9.345,9.345,0,0,0-3.535,0,11.593,11.593,0,0,0-4.565,2.048,15.718,15.718,0,0,0-6,8.9,10.993,10.993,0,0,0-.057,5.006,9.265,9.265,0,0,0,1.313,3.092,9.318,9.318,0,0,0,5.736,3.9,9.188,9.188,0,0,0,3.449.05,11.378,11.378,0,0,0,4.487-1.886,13.981,13.981,0,0,0,3.777-3.815,16.818,16.818,0,0,0,2.292-5.065,10.751,10.751,0,0,0,.153-5.32,9.047,9.047,0,0,0-1.283-3.041" transform="translate(49.098 161.712)" fill="#fff"/><path d="M240.6,237.727a16.95,16.95,0,0,0-4.342-3.469,10.762,10.762,0,0,0-5.118-1.458,9.045,9.045,0,0,0-3.264.493,9.445,9.445,0,0,0-5.176,4.638,9.426,9.426,0,0,0-.865,3.429,11.548,11.548,0,0,0,.86,4.93,15.111,15.111,0,0,0,2.8,4.552,15.281,15.281,0,0,0,4.345,3.45,10.95,10.95,0,0,0,4.837,1.29,9.3,9.3,0,0,0,3.322-.51,9.308,9.308,0,0,0,5.193-4.6,9.155,9.155,0,0,0,.9-3.329,11.386,11.386,0,0,0-.718-4.815,14.1,14.1,0,0,0-2.771-4.6" transform="translate(147.737 155.05)" fill="#fff"/><path d="M262.219,190.564q-3.579-.035-7.037-.028l-.037.1q2.112,1.919,5.258,4.653t4.925,4.365l.022.02,3.452-9.055h-.03q-2.979-.022-6.553-.057" transform="translate(169.936 126.902)" fill="#fff"/><path d="M249.905,0C111.886,0,0,111.886,0,249.905S111.886,499.811,249.905,499.811,499.811,387.923,499.811,249.905,387.925,0,249.905,0M54.539,318.274q-2.984,1.155-5.115,1.989t-3.469,1.381q.567,1.542,1.538,4.1t1.771,4.625q1.12,2.914,2.064,5.278t1.216,3.077l-6.331,2.442q-.355-.917-1.936-5.09t-3.164-8.28q-1.367-3.549-2.7-6.911T36.5,315.994q1.364-.5,5.913-2.207t11.5-4.392q2.939-1.135,7.477-2.912t9.245-3.657q.67,1.737,1.893,4.945T75,314.221q1.7,4.418,3.35,8.652t1.864,4.793l-6.3,2.432q-.17-.432-1.266-3.355t-2.227-5.854q-.665-1.712-1.551-3.978t-1.389-3.567c-1.285.493-2.634,1-4.058,1.534s-2.707,1.015-3.852,1.458q.51,1.327,1.293,3.387t1.291,3.387q1.275,3.294,2.406,6.156T66,332.917l-5.081,1.961c-.13-.342-.63-1.661-1.5-3.969s-1.6-4.23-2.2-5.778q-.5-1.3-1.326-3.4t-1.349-3.454M69.91,375.753a16.666,16.666,0,0,1-5.371-2.986,22.352,22.352,0,0,1-4.44-5.233,21.708,21.708,0,0,1-3.017-6.694,15.939,15.939,0,0,1-.293-5.831,12.233,12.233,0,0,1,2.013-5.37,16,16,0,0,1,4.8-4.457q1.362-.867,3.27-2.068t4.545-2.881Q73.7,338.78,76,337.266t6.634-4.277l4.87,7.637q-1.979,1.23-4.923,3.072t-6.614,4.183c-1.183.755-2.364,1.511-3.534,2.269s-2.379,1.534-3.627,2.327q-3.369,2.149-3.932,5.085a9.6,9.6,0,0,0,6.293,9.976q2.781.645,6.243-1.563,1.869-1.19,3.735-2.362t3.455-2.188q3.716-2.367,6.634-4.278t4.813-3.114l4.868,7.637q-4.316,2.749-6.829,4.3t-4.59,2.879q-2.634,1.674-4.53,2.9t-3.255,2.094a15.148,15.148,0,0,1-6.143,2.406,12.547,12.547,0,0,1-5.656-.5m36.674,21.317-.122.113q-.575,4.536-.98,9.431a62.674,62.674,0,0,1-1.1,8.1l-8.169-3.7q.35-1.754.988-6.546t2.113-14.714l.483-.285a10.729,10.729,0,0,0,2.332,1.055,9.833,9.833,0,0,0,2.936.576,7.434,7.434,0,0,0,2.6-.4,6.87,6.87,0,0,0,2.417-1.634,5.321,5.321,0,0,0,1.533-2.7,5.136,5.136,0,0,0-.265-3.049,8.529,8.529,0,0,0-1.318-2.271q-.83-1.025-1.689-1.906-.52-.527-.786-.8c-.178-.182-.3-.307-.362-.372q-2.352,2.254-4.8,4.627t-4.383,4.265q-3.191,3.116-6.957,6.837t-5.433,5.383l-6.329-6.479q1.564-1.489,4.6-4.4t8.907-8.642q1.564-1.529,4.473-4.39t8.23-8.175q.552.567,2.342,2.321t3.3,3.3q2.851,2.914,4.768,5.23a23.413,23.413,0,0,1,3.127,4.846,11.252,11.252,0,0,1,1.3,6.634,8.922,8.922,0,0,1-2.656,5.171,9.436,9.436,0,0,1-5.643,2.8,15.723,15.723,0,0,1-5.453-.218m46.327,22.5a21.175,21.175,0,0,1-3.2,7.366,20.358,20.358,0,0,1-5.816,5.813,18.271,18.271,0,0,1-7.236,2.779,17.7,17.7,0,0,1-7.124-.3,21.053,21.053,0,0,1-6.649-3.012,21.519,21.519,0,0,1-5.25-4.941,17.414,17.414,0,0,1-2.974-6.213,18.579,18.579,0,0,1-.232-7.879,20.364,20.364,0,0,1,3.282-7.854,20.8,20.8,0,0,1,5.465-5.635,18.136,18.136,0,0,1,7-2.861,17.406,17.406,0,0,1,7.239.128,20.765,20.765,0,0,1,7.071,3.116,21.282,21.282,0,0,1,5.471,5.223,17.561,17.561,0,0,1,2.917,6.471,17.872,17.872,0,0,1,.038,7.8m59.133,22.055q-1.052,10.329-2.3,24.352l-8.855-.813,2.407-24.981-.128-.083q-1.18,1.429-5.26,6.486T189.49,457.41l-6.548-1.884q-.585-7.175-1.409-13.808t-1-8.107l-.132-.043q-.627,1.189-4.232,8.1t-7.2,14.28l-7.689-3.894q6.3-11.513,11.144-20.867t5.595-10.789l8.7,1.534q.075,1.132.761,8.333t1.691,16.489l.208.062q4.608-5.823,9.831-12.492t5.626-7.177l8.385,3.209q-.125.935-1.176,11.267m37.4-2.136c-.312-.018-1.5-.095-3.577-.237s-4.162-.268-6.256-.391q-1.829-.108-4.262-.237t-3.824-.208q-.125,2.057-.28,4.328t-.268,4.11c.945.055,2.153.13,3.617.225s2.674.17,3.619.223q3.526.207,6.6.36t3.924.2l-.318,5.438q-.547-.032-4.233-.277c-2.456-.162-4.517-.292-6.171-.387q-1.395-.08-3.649-.2t-3.7-.2q-.187,3.2-.307,5.478t-.177,3.732q1.637.125,4.367.295t4.946.3q3.114.182,5.656.3t3.305.165l-.395,6.774q-.982-.057-5.433-.345t-8.85-.543q-3.8-.223-7.406-.4t-5.243-.28q.1-1.447.435-6.3t.756-12.289q.182-3.141.44-8.01t.5-9.926q1.857.1,5.285.322t6.9.415q4.723.275,9.26.528t5.136.285ZM99.629,250.988a149.51,149.51,0,0,1,24.229-81.781,67.46,67.46,0,0,1-3.332-6.116c-19.184-40.4,5.073-92.06,54.181-115.378s104.47-9.466,123.655,30.937a68.657,68.657,0,0,1,6.494,32.473c.955.377,1.919.736,2.866,1.13a68.822,68.822,0,0,0-6.383-34.367,70.309,70.309,0,0,0-30.995-31.878,35.979,35.979,0,0,1,12.592-2.286c12.344,0,23.391,6.3,30.827,16.232a18.366,18.366,0,0,0,8.219-14.168c.1-2,.25-6.253.243-9.775a5.646,5.646,0,0,1-2.414-5.59c.317-3.082,2.479-5.388,4.833-5.146s4.005,2.934,3.69,6.018a6.181,6.181,0,0,1-2.414,4.473c.022,4.313-.21,9.4-.248,10.221-.521,8.51-5.45,13.838-9.853,16.947a49.291,49.291,0,0,1,6.529,16.207c4.827-4.845,14.483-12.47,25.227-9.463.563.142,4.085,1.048,7.381,2.119a5.982,5.982,0,0,1,5.408-.548c2.931,1.013,4.678,3.645,3.907,5.881s-3.774,3.229-6.7,2.217a5.86,5.86,0,0,1-4.02-4.118c-2.619-.836-5.513-1.623-6.926-1.981-10.459-2.917-20.351,6.936-23.519,10.509a53.025,53.025,0,0,1,.375,6.216,50.588,50.588,0,0,1-7.161,26.2A150.557,150.557,0,0,1,400.06,246.15c.05,1.609.122,3.215.122,4.838a150.276,150.276,0,1,1-300.553,0M280.947,466.3q-4.311.465-8.337.921-3.209.365-6.264.741t-5.936.7q-.492-4.573-1.056-9.855t-1.013-9.256q-.815-7.155-1.346-11.436t-.736-5.856l9.027-1.028q.347,3.291.783,7.347t.835,7.56q.595,5.218,1.091,9.335t.568,4.742c.815-.093,1.748-.193,2.8-.306s1.993-.212,2.824-.308q3.584-.407,7.027-.828t4.233-.508l.846,7.449c-.686.077-2.471.272-5.343.581m39.177-9.06q-.53-.782-2.486-3.394t-4.55-5.861L299.75,452q-.4,4.206-.6,7.466t-.195,4.145l-8.865-.322q.235-1.784,1.711-14.125t2.791-23.646l8.883-2.671q7.675,9.174,15.712,18.71t8.627,10.246ZM362.4,436.608q-10.506-4.708-19.148-8.15t-10.491-4.138l-.095.115q2.849,5.148,6.947,12.43t5.028,8.958l-7.377,4.077q-.637-1.212-2.852-5.3t-5.558-10.151q-1.367-2.467-3.527-6.321t-4.657-8.26l4.828-5.918q1.754.69,10.5,4.238t18.027,7.051l.07-.1q-1.829-3.306-5.486-9.76t-5.831-10.379l7.4-4.092q2.262,4.2,4.558,8.419t3.625,6.617q3.006,5.44,5.425,9.736t3.056,5.445Zm37.789-35.472a17.7,17.7,0,0,1-2.044,6.832,21,21,0,0,1-4.558,5.7,21.483,21.483,0,0,1-6.083,3.868,17.383,17.383,0,0,1-6.752,1.351,18.553,18.553,0,0,1-7.694-1.716,20.423,20.423,0,0,1-6.8-5.115,20.788,20.788,0,0,1-4.117-6.689,18.3,18.3,0,0,1-1.048-7.479A17.465,17.465,0,0,1,363,390.905a20.752,20.752,0,0,1,4.763-6.086,21.334,21.334,0,0,1,6.411-4.017,17.514,17.514,0,0,1,6.987-1.23,17.846,17.846,0,0,1,7.567,1.881,21.224,21.224,0,0,1,6.349,4.915,20.4,20.4,0,0,1,4.2,7.072,18.308,18.308,0,0,1,.908,7.7M438.1,358.914l-23-10.043-.118.1q.992,1.564,4.535,7.016t7.674,11.362l-3.822,5.64q-7-1.672-13.563-2.946t-8.015-1.566l-.085.112q.937.967,6.386,6.536T419.433,386.4l-6.088,6.1q-8.989-9.561-16.377-17.069t-8.522-8.672l4.16-7.792q1.1.282,8.16,1.863t16.2,3.512l.123-.182q-4.106-6.185-8.823-13.222t-5.08-7.575l5.656-6.976q.845.407,10.341,4.615t22.44,9.74Zm14.1-41.381q-3.264-.042-7.421.027l-4.96,13.015q3.086,2.886,5.549,5.031t3.166,2.682l-5.663,6.827q-1.27-1.275-10.146-9.973T415.7,318.5l3.3-8.668q11.95-.48,24.411-1.031t13.378-.581l-.38,9.41q-.945-.057-4.207-.1" fill="#fff"/><path d="M360.353,240.891c0-1.621-.072-3.227-.122-4.837l-10.421.2-1.536-6.767a2.51,2.51,0,0,0-4.313-1.133,68.858,68.858,0,0,1-5.706,5.586,2.447,2.447,0,0,0,.292,3.9l5.929,1.128c2.964,1.721-2.372,7.962-2.372,7.962-4.94,7.116-9.683-.988-9.683-.988-5.929.79-5.929-4.15-5.929-4.15-.79-3.36-8.982.395-8.982.395-7.8.988-4.851,9.881-4.851,9.881,2.371.988,3.359,3.755,0,5.731s-2.571,13.835-2.571,13.835c-2.371,5.731,4.348,9.092,4.348,9.092,6.917,2.964,0,11.264,0,11.264-2.964,5.336-12.845,1.186-12.845,1.186-.4,1.976-9.29,8.047-9.29,8.047-5.335.933-1.976,4.205-1.976,4.205,4.941.593,4.15,9.29,4.15,9.29a4.713,4.713,0,0,0,5.929.988c6.719,0,1.779,4.545,1.779,4.545-4.348.988-2.966,4.57-2.966,4.57.593,10.5-7.905,5.678-7.905,5.678-.748-3.164-12.707-13.978-18.475-19.048a12.083,12.083,0,0,1-3.877-6.712l-1.363-6.819c-16.009-2.569-38.34-22.926-38.34-22.926-7.905,1.779-4.941,14.823-4.941,14.823,7.312.593,10.673,7.51,10.673,7.51.988,6.126,23.32,10.671,23.32,10.671a14.272,14.272,0,0,1,6.276,1.869,1.831,1.831,0,0,1-1.363,3.294,14.527,14.527,0,0,0-2.671-.178,2.862,2.862,0,0,0-1.886,4.853c2.661,2.819,2.806,8.345,2.806,8.345-.207,4.575-1.948,6.031-3.55,6.384a1.833,1.833,0,0,1-2.147-2.242c1.816-8.087-6.159-12.839-6.159-12.839-24.506-7.312-34.387-20.75-34.387-20.75a6.527,6.527,0,0,0-5.038-4.412,7.708,7.708,0,0,0-7.267,3.034c-8.585,10.993-12.793,8.888-12.793,8.888-9.242-5.041-13.027.73-14.448,4.523a8.868,8.868,0,0,1-3.312,4.253c-4.015,2.732-8.477,7.452-10.826,10.076a8.349,8.349,0,0,0-2.028,4.247l-2,12.474c-1.608,1.023-7.864,8.317-11.014,12.045a4.026,4.026,0,0,1-3.972,1.4c-5.6-1.356-12.115,1.839-15.572,3.914a2.265,2.265,0,0,1-3.205-.868c-1.873-3.642-6.553-8.2-6.553-8.2l-7.061-2.059a3.2,3.2,0,0,1-2.3-3.232l1.536-30.192a4.488,4.488,0,0,0-1.641-3.7l-.418-.343c-6.324-5.336,1.383-7.312,1.383-7.312,7.51-1.383,39.328,3.954,39.328,3.954,3.755-1.779,3.953-12.649,3.953-12.649,1.383-6.126-3.557-17.392-3.557-17.392-8.5-2.569-16.009-8.5-16.009-8.5-.593-5.928,16.8-2.371,16.8-2.371-.995-.4-1.589-2.5-1.934-4.485a2.256,2.256,0,0,1,2.764-2.562,25.324,25.324,0,0,0,7.272.525,21.775,21.775,0,0,1,13.242-13.833L184.2,226.171c4.545-7.51,10.474-2.372,10.474-2.372.593-8.3-2.569-17.588-2.569-17.588-4.348-13.636,6.046-15.811,6.046-15.811,3.082,4.348-1.5,9.288-1.5,9.288,2.969-.2,1.5,3.041,1.5,3.041-6.431,14.008,9.933,14.508,9.933,14.508,1-7.5,13.508,0,13.508,0,4-12.507,14.008-10.006,14.008-10.006,1.5,6.5,5,0,5,0l6.807-7.5c-12.2-21.012,5.7-18.012,5.7-18.012,3.149-4.55.423-6.651-1.5-7.5a7.121,7.121,0,0,1-3.859-4.088c-3.42-9.8,19.866-15.424,19.866-15.424,3.969-11.9,30.082-35.147,30.527-35.542a150.24,150.24,0,0,0-21.657-13.077,50.588,50.588,0,0,0,7.161-26.2,53.031,53.031,0,0,0-.375-6.216c3.169-3.574,13.06-13.427,23.519-10.509,1.413.358,4.307,1.143,6.926,1.981a5.86,5.86,0,0,0,4.02,4.118c2.929,1.011,5.929.018,6.7-2.217s-.976-4.87-3.905-5.881a5.98,5.98,0,0,0-5.41.548c-3.3-1.073-6.817-1.978-7.381-2.119-10.744-3.007-20.4,4.618-25.227,9.461a49.3,49.3,0,0,0-6.529-16.206c4.4-3.109,9.331-8.437,9.853-16.949.038-.815.27-5.908.248-10.219A6.184,6.184,0,0,0,288.5,21.2c.315-3.084-1.336-5.778-3.69-6.019s-4.517,2.064-4.831,5.148a5.642,5.642,0,0,0,2.412,5.59c.007,3.522-.148,7.775-.243,9.775a18.355,18.355,0,0,1-8.219,14.166c-7.436-9.928-18.483-16.231-30.827-16.231a35.979,35.979,0,0,0-12.592,2.286A70.313,70.313,0,0,1,261.51,67.788a68.814,68.814,0,0,1,6.383,34.369c-.946-.395-1.911-.753-2.866-1.13a68.653,68.653,0,0,0-6.494-32.473C239.349,28.15,183.986,14.3,134.878,37.618S61.513,112.593,80.7,153a67.037,67.037,0,0,0,3.33,6.116,150.266,150.266,0,1,0,276.324,81.779M107.8,238.783c-5.543-2.541,3.234-9.7,3.234-9.7,2.079-2.772-.23-2.772-.23-2.772-3.465-.461,0-3.464,0-3.464l12.01-11.781c6.468-2.079,2.311,17.787,2.311,17.787.923,7.159-17.325,9.931-17.325,9.931m51.64,4.458c-4.573,4.34-13.215,6.859-18.5,8.06a2.916,2.916,0,0,1-2.051-5.4,20.022,20.022,0,0,1,2.409-1.111c2.771-4.158-4.851-3.9-4.851-3.9-7.854-2.511-.693-5.63-.693-5.63-1.616-3.752,4.62-9.413,4.62-9.413,3.465-5.543-.923-10.856-.923-10.856-9.24,3.234-8.778-14.553-8.778-14.553.462-6.7,15.246,0,15.246,0l.67,10.474c.332,4.262,9.2,16.052,13.47,21.51a8.089,8.089,0,0,1-.613,10.818M81.847,139.3c-8.755-42.026,17.51-68.041,17.51-68.041C165.9,2.721,227.683,48.748,227.683,48.748,113.115,48.748,81.847,139.3,81.847,139.3m2.751,7.5S113.115,46.476,235.938,54.741c0,0,34.772,26.277,13.508,77.307,0,0-28.268,65.04-106.313,58.536,0,0-42.775-3.5-58.536-43.777M208.11,305.42a7.121,7.121,0,0,1,1.966-4.15c4.337-.988,2.581,11.661,2.581,11.661-2.767,2.174-5.535-2.964-5.535-2.964-1.778-3.755.988-4.547.988-4.547m6.523,26.285c-2.569,3.755-4.557-1.581-4.557-1.581-2.777-1.186-2.163-10.276-2.163-10.276-.395-5.731,4.15-2.174,4.15-2.174,4.15-2.174,4.348,1.778,4.348,1.778,3.754,6.522-1.779,12.254-1.779,12.254m30.83,10.474c-9.486-.593-10.474-5.929-10.474-5.929.2-2.766,10.08-3.205,10.08-3.205-.593-3.011,2.964-2.526,2.964-2.526,4.743.4,2.767,8.893,2.767,8.893,2.964,4.547-5.336,2.767-5.336,2.767" transform="translate(39.829 10.098)" fill="#02356a"/><path d="M154,198.574s1.758-12.649-2.581-11.661a7.114,7.114,0,0,0-1.964,4.15s-2.767.791-.988,4.547c0,0,2.766,5.138,5.533,2.964" transform="translate(98.487 124.454)" fill="#d29c5a"/><path d="M152.875,197.172s-4.545-3.557-4.15,2.174c0,0-.615,9.09,2.163,10.276,0,0,1.988,5.336,4.557,1.581,0,0,5.535-5.731,1.779-12.252,0,0-.2-3.954-4.348-1.779" transform="translate(99.018 130.597)" fill="#d29c5a"/><path d="M178,204.459s-3.557-.485-2.964,2.524c0,0-9.881.44-10.08,3.207,0,0,.988,5.336,10.474,5.929,0,0,8.3,1.778,5.336-2.767,0,0,1.976-8.5-2.767-8.893" transform="translate(109.865 136.157)" fill="#d29c5a"/><path d="M104.357,132.809,92.347,144.59s-3.465,3,0,3.464c0,0,2.309,0,.23,2.772,0,0-8.777,7.161-3.234,9.7,0,0,18.248-2.772,17.323-9.931,0,0,4.158-19.866-2.309-17.787" transform="translate(58.283 88.354)" fill="#d29c5a"/><path d="M118.252,138.033l-.67-10.473s-14.783-6.7-15.246,0c0,0-.461,17.785,8.778,14.551,0,0,4.388,5.313.923,10.858,0,0-6.236,5.66-4.618,9.413,0,0-7.161,3.117.691,5.63,0,0,7.624-.26,4.851,3.9a20.017,20.017,0,0,0-2.409,1.111,2.916,2.916,0,0,0,2.053,5.4c5.29-1.2,13.93-3.719,18.5-8.06a8.089,8.089,0,0,0,.615-10.818c-4.272-5.456-13.138-17.248-13.472-21.51" transform="translate(68.157 82.977)" fill="#d29c5a"/><path d="M249.617,113.124s-23.286,5.621-19.866,15.424a7.116,7.116,0,0,0,3.859,4.088c1.923.851,4.648,2.954,1.5,7.5,0,0-17.9-3-5.7,18.01l-6.807,7.505s-3.5,6.5-5,0c0,0-10.006-2.5-14.008,10.006,0,0-12.507-7.505-13.508,0,0,0-16.364-.5-9.933-14.51,0,0,1.471-3.237-1.5-3.039,0,0,4.58-4.941,1.5-9.288,0,0-10.394,2.174-6.046,15.811,0,0,3.162,9.288,2.569,17.588,0,0-5.929-5.138-10.474,2.371L152.56,202.381a21.781,21.781,0,0,0-13.242,13.835,25.324,25.324,0,0,1-7.272-.525,2.255,2.255,0,0,0-2.764,2.561c.345,1.989.94,4.088,1.934,4.485,0,0-17.392-3.557-16.8,2.372,0,0,7.51,5.929,16.007,8.5,0,0,4.941,11.264,3.559,17.39,0,0-.2,10.871-3.953,12.649,0,0-31.818-5.336-39.328-3.952,0,0-7.707,1.976-1.383,7.312l.418.342a4.489,4.489,0,0,1,1.641,3.7l-1.536,30.192a3.2,3.2,0,0,0,2.3,3.23l7.061,2.059s4.68,4.553,6.551,8.2a2.268,2.268,0,0,0,3.207.868c3.457-2.076,9.976-5.27,15.572-3.914a4.025,4.025,0,0,0,3.972-1.406c3.149-3.729,9.406-11.022,11.014-12.045l2-12.474a8.349,8.349,0,0,1,2.028-4.247c2.347-2.622,6.811-7.342,10.826-10.074a8.885,8.885,0,0,0,3.312-4.253c1.421-3.794,5.206-9.565,14.448-4.525,0,0,4.208,2.1,12.793-8.887a7.708,7.708,0,0,1,7.267-3.034,6.524,6.524,0,0,1,5.038,4.412s9.881,13.438,34.387,20.751c0,0,7.975,4.75,6.158,12.837a1.836,1.836,0,0,0,2.149,2.244c1.6-.353,3.342-1.809,3.55-6.386,0,0-.145-5.526-2.806-8.345a2.861,2.861,0,0,1,1.886-4.852,14.381,14.381,0,0,1,2.671.178,1.832,1.832,0,0,0,1.363-3.294,14.273,14.273,0,0,0-6.276-1.869s-22.332-4.545-23.32-10.673c0,0-3.36-6.916-10.673-7.509,0,0-2.964-13.043,4.941-14.823,0,0,22.332,20.356,38.34,22.925l1.363,6.819a12.087,12.087,0,0,0,3.877,6.714c5.768,5.07,17.727,15.884,18.475,19.048,0,0,8.5,4.822,7.905-5.678,0,0-1.383-3.582,2.964-4.57,0,0,4.941-4.547-1.778-4.547a4.713,4.713,0,0,1-5.929-.988s.791-8.7-4.15-9.288c0,0-3.359-3.272,1.976-4.205,0,0,8.893-6.071,9.29-8.049,0,0,9.881,4.15,12.845-1.185,0,0,6.917-8.3,0-11.266,0,0-6.719-3.36-4.348-9.092,0,0-.79-11.857,2.569-13.833s2.372-4.743,0-5.731c0,0-2.942-8.893,4.853-9.881,0,0,8.19-3.755,8.982-.395,0,0,0,4.94,5.929,4.15,0,0,4.743,8.1,9.683.988,0,0,5.336-6.243,2.372-7.964l-5.929-1.128a2.446,2.446,0,0,1-.292-3.894,69.129,69.129,0,0,0,5.706-5.586,2.509,2.509,0,0,1,4.312,1.133l1.538,6.766,10.421-.2a150.027,150.027,0,0,0-62.088-116.9c-.443.395-26.557,23.636-30.525,35.542" transform="translate(57.83 51.672)" fill="#d29c5a"/><path d="M219.584,41.367S157.8-4.661,91.257,63.88c0,0-26.265,26.017-17.51,68.041,0,0,31.267-90.554,145.836-90.554M87.63,90.85C84.52,90.85,82,89.144,82,87.041s2.517-3.809,5.628-3.809,5.626,1.7,5.626,3.809S90.738,90.85,87.63,90.85m93.555-60.48c3.662,0,6.629,1.789,6.629,4s-2.967,4-6.629,4-6.627-1.789-6.627-4,2.969-4,6.627-4m-80.14,37.607a1.844,1.844,0,0,1,1.569-2.222c3.684-.488,12.81-2.5,17.922-10.683A27.179,27.179,0,0,1,136.7,42.74c7.257-1.841,17.927-2.559,33.359.128,0,0-39.272,11.257-58.536,31.268,0,0-9.283-1.146-10.473-6.159" transform="translate(47.928 17.479)" fill="#fff"/><path d="M239.533,116.419c21.264-51.031-13.508-77.307-13.508-77.307C103.2,30.845,74.684,131.177,74.684,131.177c15.761,40.275,58.536,43.777,58.536,43.777,78.045,6.5,106.313-58.534,106.313-58.534m-83.8,37.522c-4.422,0-8.005-5.6-8.005-12.509s3.584-12.507,8.005-12.507,8.005,5.6,8.005,12.507-3.585,12.509-8.005,12.509m61.662-87.052c6.563,0,11.882,4.2,11.882,9.38s-5.32,9.381-11.882,9.381-11.882-4.2-11.882-9.381,5.32-9.38,11.882-9.38M215,123.673c0,6.769-5.993,12.257-13.383,12.257s-13.383-5.488-13.383-12.257,5.993-12.257,13.383-12.257S215,116.9,215,123.673M107.222,146.186c-7.471,0-13.527-3.864-13.527-8.63s6.056-8.63,13.527-8.63,13.527,3.864,13.527,8.63-6.056,8.63-13.527,8.63m16.484-29a17.32,17.32,0,0,1-6.111-15.427A77.335,77.335,0,0,0,116.523,78.9s27.291-30.217,69.729-33.817a27.193,27.193,0,0,0,5.924,14.09,27.1,27.1,0,0,1,6.036,15.008c.566,8.5-3.127,18.71-22.968,20.967,0,0-25.245-.881-30.563,14.193a16,16,0,0,1-4.323,6.827c-3.685,3.25-9.826,6.481-16.652,1.018" transform="translate(49.742 25.727)" fill="#fff"/><path d="M127.955,106.757c5.318-15.074,30.563-14.193,30.563-14.193C178.359,90.307,182.052,80.1,181.486,71.6A27.1,27.1,0,0,0,175.45,56.59a27.2,27.2,0,0,1-5.924-14.09C127.088,46.1,99.8,76.317,99.8,76.317a77.334,77.334,0,0,1,1.071,22.858,17.32,17.32,0,0,0,6.111,15.427c6.826,5.463,12.967,2.232,16.652-1.018a16,16,0,0,0,4.323-6.827" transform="translate(66.468 28.306)" fill="#d29c5a"/><path d="M158.447,36.929c-15.433-2.687-26.1-1.969-33.359-.128a27.182,27.182,0,0,0-16.161,12.332c-5.11,8.182-14.238,10.194-17.918,10.683a1.846,1.846,0,0,0-1.573,2.222c1.19,5.013,10.476,6.159,10.476,6.159,19.261-20.011,58.535-31.268,58.535-31.268" transform="translate(59.536 23.418)" fill="#d29c5a"/><path d="M142.841,94.574c0,6.769,5.991,12.257,13.383,12.257s13.383-5.488,13.383-12.257-5.993-12.257-13.383-12.257S142.841,87.8,142.841,94.574" transform="translate(95.137 54.826)" fill="#02356a"/><path d="M126.532,92.827c-4.422,0-8.005,5.6-8.005,12.507s3.584,12.509,8.005,12.509,8.005-5.6,8.005-12.509-3.584-12.507-8.005-12.507" transform="translate(78.943 61.826)" fill="#02356a"/><path d="M99.622,92.827c-7.47,0-13.527,3.864-13.527,8.63s6.056,8.63,13.527,8.63,13.527-3.864,13.527-8.63-6.056-8.63-13.527-8.63" transform="translate(57.342 61.826)" fill="#02356a"/><path d="M165.093,74.352c6.563,0,11.882-4.2,11.882-9.381s-5.32-9.38-11.882-9.38-11.882,4.2-11.882,9.38,5.32,9.381,11.882,9.381" transform="translate(102.044 37.026)" fill="#02356a"/><path d="M140.171,36.715c3.66,0,6.629-1.789,6.629-4s-2.969-4-6.629-4-6.629,1.789-6.629,4,2.969,4,6.629,4" transform="translate(88.944 19.129)" fill="#02356a"/><path d="M83.616,60.45c-3.109,0-5.628,1.7-5.628,3.809s2.519,3.809,5.628,3.809,5.628-1.706,5.628-3.809-2.519-3.809-5.628-3.809" transform="translate(51.943 40.262)" fill="#02356a"/><path d="M44.825,209.849q1.3,3.459,1.5,3.968l5.081-1.963q-.3-.79-1.438-3.652t-2.406-6.154q-.51-1.327-1.29-3.389t-1.295-3.387q1.719-.662,3.854-1.458t4.057-1.533q.5,1.3,1.391,3.567t1.549,3.977q1.13,2.934,2.229,5.856t1.265,3.355l6.3-2.432q-.215-.565-1.863-4.793t-3.352-8.652q-1.25-3.244-2.474-6.451c-.818-2.139-1.444-3.789-1.893-4.945q-4.708,1.877-9.245,3.655t-7.477,2.914q-6.947,2.679-11.5,4.392t-5.914,2.208q.59,1.532,1.916,4.891t2.7,6.909q1.582,4.111,3.162,8.282t1.938,5.09l6.329-2.442q-.272-.717-1.216-3.079t-2.064-5.276q-.8-2.067-1.769-4.625t-1.538-4.1q1.344-.55,3.469-1.383t5.113-1.988q.522,1.352,1.349,3.454t1.328,3.4q.895,2.322,2.2,5.778" transform="translate(14.593 121.062)" fill="#02356a"/><path d="M62.32,238.634q1.9-1.225,4.53-2.9,2.074-1.322,4.59-2.877t6.829-4.305L73.4,220.915q-1.894,1.2-4.815,3.114t-6.634,4.278q-1.592,1.015-3.455,2.188t-3.735,2.362q-3.464,2.207-6.243,1.563a8.178,8.178,0,0,1-4.883-3.947,8.183,8.183,0,0,1-1.409-6.029q.565-2.936,3.932-5.085c1.248-.795,2.454-1.569,3.629-2.327s2.349-1.514,3.532-2.269q3.671-2.339,6.614-4.185t4.923-3.071L59.99,199.87q-4.341,2.766-6.636,4.277t-4.58,2.969q-2.634,1.677-4.545,2.879t-3.27,2.069a15.991,15.991,0,0,0-4.8,4.457,12.209,12.209,0,0,0-2.014,5.368,15.947,15.947,0,0,0,.293,5.833,21.748,21.748,0,0,0,3.017,6.694,22.392,22.392,0,0,0,4.44,5.233,16.649,16.649,0,0,0,5.371,2.984,12.526,12.526,0,0,0,5.656.5,15.138,15.138,0,0,0,6.143-2.406q1.359-.865,3.255-2.093" transform="translate(22.644 133.121)" fill="#02356a"/><path d="M88.636,242.606a11.257,11.257,0,0,0-1.3-6.634,23.458,23.458,0,0,0-3.127-4.847q-1.919-2.314-4.767-5.23-1.512-1.549-3.3-3.3T73.8,220.276q-5.325,5.315-8.232,8.177T61.1,232.841q-5.873,5.735-8.9,8.642t-4.6,4.4l6.331,6.478q1.662-1.664,5.431-5.383t6.959-6.837q1.937-1.894,4.383-4.263t4.8-4.627c.062.065.182.188.36.372s.44.451.786.8q.86.88,1.689,1.906A8.476,8.476,0,0,1,79.65,236.6a5.143,5.143,0,0,1,.265,3.051,5.313,5.313,0,0,1-1.531,2.7,6.86,6.86,0,0,1-2.419,1.636,7.512,7.512,0,0,1-2.6.4,9.786,9.786,0,0,1-2.936-.578,10.68,10.68,0,0,1-2.331-1.053l-.485.285q-1.474,9.924-2.113,14.714t-.986,6.544l8.167,3.7a62.6,62.6,0,0,0,1.1-8.1q.4-4.893.98-9.431l.12-.113a15.69,15.69,0,0,0,5.455.218,9.422,9.422,0,0,0,5.643-2.8,8.915,8.915,0,0,0,2.654-5.171" transform="translate(31.7 146.712)" fill="#02356a"/><path d="M104.334,246.784a21.275,21.275,0,0,0-5.471-5.221,20.737,20.737,0,0,0-7.071-3.117,17.462,17.462,0,0,0-7.239-.128,18.188,18.188,0,0,0-7,2.861,20.809,20.809,0,0,0-5.465,5.636,20.358,20.358,0,0,0-3.282,7.852,18.578,18.578,0,0,0,.232,7.879,17.422,17.422,0,0,0,2.974,6.214,21.514,21.514,0,0,0,5.25,4.94,21.053,21.053,0,0,0,6.649,3.012,17.7,17.7,0,0,0,7.124.3,18.245,18.245,0,0,0,7.236-2.779,20.358,20.358,0,0,0,5.816-5.813,21.154,21.154,0,0,0,3.2-7.364,17.88,17.88,0,0,0-.038-7.8,17.572,17.572,0,0,0-2.917-6.471m-5.826,11.607a16.79,16.79,0,0,1-2.292,5.063,14.011,14.011,0,0,1-3.777,3.817,11.4,11.4,0,0,1-4.487,1.886,9.257,9.257,0,0,1-3.449-.05,9.335,9.335,0,0,1-5.736-3.9,9.279,9.279,0,0,1-1.313-3.092,11.015,11.015,0,0,1,.055-5.006,15.731,15.731,0,0,1,6-8.9,11.593,11.593,0,0,1,4.565-2.048,9.38,9.38,0,0,1,3.535-.007,9.436,9.436,0,0,1,5.771,3.874,9.067,9.067,0,0,1,1.283,3.041,10.75,10.75,0,0,1-.153,5.32" transform="translate(45.622 158.516)" fill="#02356a"/><path d="M134.735,266.262q-5.22,6.67-9.831,12.492l-.208-.062q-1-9.284-1.689-16.489t-.763-8.333l-8.7-1.536q-.755,1.434-5.6,10.789T96.8,283.992l7.69,3.892q3.6-7.367,7.2-14.28t4.232-8.1l.133.043q.172,1.472,1,8.107t1.409,13.808l6.546,1.884q4.343-5.768,8.422-10.826t5.261-6.486l.128.083L136.419,297.1l8.855.811q1.245-14.02,2.3-24.352t1.178-11.266l-8.387-3.21q-.4.512-5.626,7.179" transform="translate(64.475 168.063)" fill="#02356a"/><path d="M147.039,259.548q-3.474-.2-6.9-.415t-5.285-.322q-.245,5.058-.5,9.926t-.441,8.012q-.435,7.435-.755,12.287t-.435,6.3q1.634.1,5.243.28t7.4.4q4.4.257,8.852.543t5.431.345l.4-6.774q-.765-.045-3.307-.163t-5.655-.3q-2.214-.13-4.946-.3t-4.367-.3q.055-1.449.177-3.732t.307-5.476q1.444.082,3.7.2t3.65.2c1.654.1,3.715.227,6.171.387s3.869.255,4.233.277l.318-5.438q-.85-.047-3.924-.2t-6.6-.36c-.946-.053-2.153-.13-3.619-.223s-2.672-.17-3.619-.225q.107-1.839.27-4.11t.28-4.328q1.389.08,3.824.21t4.262.235q3.141.185,6.254.391t3.577.237l.391-6.746q-.6-.037-5.135-.287t-9.26-.528" transform="translate(88.402 172.378)" fill="#02356a"/><path d="M178.765,286.381q-3.444.42-7.027.828-1.247.145-2.824.308t-2.8.3q-.07-.625-.568-4.74t-1.091-9.335q-.4-3.509-.835-7.562t-.783-7.346l-9.027,1.028q.207,1.577.736,5.856T155.9,277.16q.45,3.971,1.013,9.256t1.056,9.855q2.881-.325,5.936-.7t6.264-.741q4.021-.457,8.337-.921t5.343-.582L183,285.873q-.79.087-4.233.508" transform="translate(102.445 172.397)" fill="#02356a"/><path d="M187.505,253.8l-8.883,2.671q-1.314,11.306-2.791,23.644t-1.709,14.125l8.863.322q0-.885.195-4.145t.6-7.466l13.337-4.012q2.594,3.249,4.55,5.861t2.486,3.4l7.692-5.441q-.59-.71-8.627-10.244T187.505,253.8m-3.327,23.116,0-.028q.2-2.409.451-6.569t.48-7l.1-.035q2.119,2.739,4.268,5.591t3.957,5.228l.018.023Z" transform="translate(115.971 169.043)" fill="#02356a"/><path d="M230.169,255.67q-1.327-2.4-3.625-6.618t-4.558-8.418l-7.4,4.092q2.172,3.924,5.831,10.379t5.485,9.76l-.068.1q-9.281-3.5-18.027-7.051t-10.5-4.237l-4.83,5.918q2.5,4.406,4.658,8.259t3.525,6.323q3.346,6.06,5.558,10.15t2.854,5.3l7.377-4.077q-.93-1.677-5.028-8.958t-6.947-12.432l.093-.113q1.854.7,10.493,4.138t19.148,8.149l4.442-5.488q-.635-1.15-3.056-5.443t-5.425-9.736" transform="translate(128.197 160.271)" fill="#02356a"/><path d="M250.741,234.629a21.239,21.239,0,0,0-6.348-4.915,17.853,17.853,0,0,0-7.569-1.881,17.519,17.519,0,0,0-6.987,1.23,21.339,21.339,0,0,0-6.409,4.017,20.787,20.787,0,0,0-4.765,6.086,17.493,17.493,0,0,0-1.909,6.986,18.267,18.267,0,0,0,1.05,7.479,20.777,20.777,0,0,0,4.115,6.691,20.446,20.446,0,0,0,6.8,5.113,18.514,18.514,0,0,0,7.692,1.716,17.383,17.383,0,0,0,6.752-1.351,21.491,21.491,0,0,0,6.084-3.868,21.059,21.059,0,0,0,4.558-5.7,17.753,17.753,0,0,0,2.044-6.832,18.336,18.336,0,0,0-.91-7.7,20.4,20.4,0,0,0-4.2-7.072m-3.26,15.826a9.135,9.135,0,0,1-.9,3.329,9.319,9.319,0,0,1-5.195,4.6,9.259,9.259,0,0,1-3.322.51,10.95,10.95,0,0,1-4.837-1.29,15.281,15.281,0,0,1-4.345-3.45,15.091,15.091,0,0,1-2.8-4.552,11.542,11.542,0,0,1-.858-4.928,9.376,9.376,0,0,1,.865-3.429,8.825,8.825,0,0,1,2.146-2.816,8.929,8.929,0,0,1,3.029-1.824,9.045,9.045,0,0,1,3.264-.493,10.777,10.777,0,0,1,5.118,1.458,16.921,16.921,0,0,1,4.342,3.469,14.1,14.1,0,0,1,2.771,4.6,11.364,11.364,0,0,1,.718,4.815" transform="translate(144.341 151.74)" fill="#02356a"/><path d="M253.552,201.911l-5.656,6.976q.36.542,5.08,7.577t8.823,13.22l-.123.182q-9.137-1.929-16.2-3.512t-8.16-1.863l-4.16,7.792q1.132,1.165,8.522,8.672t16.379,17.069l6.086-6.1q-5.888-5.705-11.341-11.277t-6.386-6.538l.085-.112q1.454.292,8.015,1.566t13.563,2.946l3.824-5.64q-4.138-5.915-7.675-11.362t-4.535-7.014l.118-.1,23,10.043,3.52-8.169q-12.945-5.533-22.438-9.74t-10.343-4.615" transform="translate(155.29 134.48)" fill="#02356a"/><path d="M277.228,185.585q-12.463.55-24.411,1.033l-3.3,8.667q8.154,7.94,17.03,16.64t10.148,9.971l5.663-6.826q-.7-.537-3.166-2.684t-5.551-5.031l4.961-13.013q4.156-.072,7.421-.028t4.205.1l.381-9.41q-.92.03-13.378.581M269.1,203.359l-.022-.02q-1.779-1.629-4.925-4.365t-5.258-4.652l.035-.1q3.464-.008,7.039.028t6.553.057h.03Z" transform="translate(166.185 123.219)" fill="#02356a"/></g></svg>