<?xml version="1.0" standalone="no"?>
<!DOCTYPE svg PUBLIC "-//W3C//DTD SVG 20010904//EN"
 "http://www.w3.org/TR/2001/REC-SVG-20010904/DTD/svg10.dtd">
<svg version="1.0" xmlns="http://www.w3.org/2000/svg"
 width="512.000000pt" height="512.000000pt" viewBox="0 0 512.000000 512.000000"
 preserveAspectRatio="xMidYMid meet">
<metadata>
Created by potrace 1.14, written by Peter Selinger 2001-2017
</metadata>
<g transform="translate(0.000000,512.000000) scale(0.100000,-0.100000)"
fill="#000000" stroke="none">
<path d="M3290 4845 c-8 -10 -10 -27 -5 -52 4 -21 8 -72 9 -113 1 -62 -3 -81
-22 -113 -37 -58 -57 -64 -90 -26 -70 84 -201 136 -322 127 -88 -6 -90 -17
-16 -66 179 -118 306 -352 306 -566 0 -54 -3 -64 -15 -60 -11 4 -15 21 -15 55
0 179 -100 391 -241 511 -160 135 -349 199 -589 200 -317 0 -615 -125 -840
-353 -177 -178 -268 -376 -278 -601 -5 -138 11 -229 62 -335 l34 -71 -25 -37
c-38 -56 -110 -214 -144 -317 -281 -838 220 -1748 1083 -1969 326 -83 633 -60
963 72 459 184 799 586 915 1085 22 94 43 281 38 339 l-3 40 -51 3 c-49 3 -51
4 -60 39 -5 20 -17 41 -26 47 -14 9 -24 3 -55 -34 -21 -24 -38 -49 -38 -54 0
-6 17 -14 38 -19 43 -10 46 -25 17 -73 -28 -44 -55 -52 -91 -25 -15 12 -35 21
-44 21 -8 0 -21 11 -27 25 -8 18 -19 25 -38 25 -38 0 -93 -20 -107 -38 -18
-22 -16 -67 2 -82 19 -16 19 -25 0 -44 -24 -24 -35 -64 -35 -131 0 -78 5 -92
41 -111 41 -21 41 -74 -1 -116 -28 -27 -35 -30 -74 -24 -41 7 -48 4 -110 -41
-36 -26 -66 -53 -66 -59 0 -7 11 -19 24 -28 18 -11 26 -27 28 -53 3 -37 4 -38
48 -43 49 -5 55 -22 19 -48 -13 -9 -19 -25 -19 -51 0 -47 -21 -69 -53 -55 -12
5 -73 62 -134 126 -94 97 -114 123 -119 156 -8 52 -11 55 -69 76 -80 29 -171
83 -256 152 -44 35 -84 64 -89 64 -6 0 -19 -9 -30 -20 -15 -15 -20 -33 -20
-75 0 -52 1 -55 33 -69 31 -13 87 -68 87 -86 0 -15 106 -59 182 -76 88 -20
118 -30 118 -43 0 -5 -12 -11 -26 -13 -40 -5 -51 -29 -31 -71 19 -40 22 -89 7
-118 -18 -33 -37 -22 -42 26 -7 61 -31 93 -86 116 -138 58 -218 106 -292 176
-98 95 -110 96 -185 23 -62 -61 -87 -71 -136 -54 -53 19 -94 3 -119 -46 -11
-21 -40 -55 -65 -76 -78 -64 -105 -105 -117 -181 -8 -57 -16 -75 -47 -108 -20
-22 -46 -53 -58 -69 -20 -25 -30 -29 -81 -30 -42 -2 -73 -10 -105 -28 l-46
-26 -38 51 c-31 42 -47 54 -87 65 l-49 14 7 177 c6 170 6 178 -14 196 -29 26
-26 63 5 71 30 7 135 -1 293 -23 134 -18 136 -18 153 72 11 60 7 109 -13 177
-10 33 -21 43 -87 79 -42 22 -82 47 -90 54 -22 22 31 38 100 31 l57 -5 -2 32
c-1 32 -1 32 46 32 45 0 48 1 70 45 15 27 42 57 71 77 25 17 83 76 127 131 44
55 87 103 96 106 9 3 26 3 40 0 23 -6 24 -4 24 42 0 27 -7 74 -15 104 -21 77
-19 122 6 154 31 40 52 35 46 -11 -25 -168 -17 -203 52 -224 34 -10 42 -9 56
5 20 20 57 21 94 2 31 -17 40 -12 61 28 26 51 99 83 117 52 15 -27 30 -21 77
30 l46 52 -20 43 c-38 84 -20 134 50 141 31 3 35 7 38 34 3 26 -3 36 -27 53
-16 12 -33 30 -36 41 -15 47 56 109 163 141 32 9 48 21 59 43 24 48 77 111
190 227 l104 106 -63 40 c-35 22 -83 51 -108 65 -25 13 -44 29 -43 34 1 5 14
38 29 74 21 50 28 87 32 163 l5 98 41 33 c61 50 99 66 156 66 52 0 120 -22
120 -39 0 -5 14 -14 31 -20 37 -13 69 0 69 28 0 29 -31 48 -90 54 -30 3 -76 9
-102 13 -65 9 -129 -11 -188 -57 l-49 -38 -11 37 c-6 20 -20 56 -32 79 l-22
41 33 38 c44 50 60 90 71 182 5 42 12 92 16 110 10 52 -35 85 -66 47z m-820
-203 c79 -24 174 -63 226 -94 l39 -23 -140 -12 c-362 -32 -656 -142 -905 -339
-157 -124 -336 -345 -411 -510 l-32 -69 -9 40 c-16 69 -3 281 22 360 42 132
96 222 195 320 180 181 370 291 586 340 93 21 341 14 429 -13z m408 -238 c196
-220 204 -579 18 -858 -167 -251 -454 -436 -740 -475 -311 -43 -545 25 -731
213 -85 86 -149 188 -147 238 1 42 102 241 173 343 84 118 244 277 350 347
255 169 523 245 876 247 l151 1 50 -56z m-1011 -1425 c29 -10 31 -13 35 -78 6
-74 26 -118 104 -218 52 -67 61 -93 44 -132 -19 -48 -192 -125 -219 -98 -17
17 -13 35 9 47 11 6 20 17 20 25 0 13 -8 17 -62 29 -31 7 -36 27 -13 46 8 7
15 18 15 25 0 6 13 32 30 56 30 44 38 91 20 119 -9 15 -14 16 -53 19 -11 1
-24 15 -33 36 -14 35 -19 116 -7 128 10 11 76 8 110 -4z m-173 -229 c-2 -92
-3 -95 -33 -122 -32 -28 -133 -64 -151 -53 -17 11 -11 42 15 73 28 33 31 48
13 55 -18 6 123 148 142 144 12 -2 15 -20 14 -97z m896 -891 c0 -54 -30 -64
-57 -19 -12 19 -9 33 21 79 14 22 36 -15 36 -60z m35 -123 c15 -35 11 -67 -13
-103 -32 -50 -72 -5 -72 81 l0 54 36 0 c31 0 38 -4 49 -32z m343 -118 c15 -15
16 -94 2 -103 -17 -11 -117 15 -135 35 -23 25 -13 37 36 45 22 4 43 13 46 21
6 17 35 18 51 2z"/>
<path d="M2298 4619 c-24 -13 -23 -46 1 -59 44 -23 111 -5 111 30 0 35 -71 53
-112 29z"/>
<path d="M1345 4074 c-22 -23 -15 -47 17 -58 56 -20 108 37 59 64 -28 15 -57
12 -76 -6z"/>
<path d="M2662 4150 c-63 -38 -64 -106 -2 -147 65 -45 170 -17 193 50 28 85
-102 151 -191 97z"/>
<path d="M2539 3711 c-66 -21 -99 -61 -99 -121 0 -116 151 -168 234 -81 19 20
30 43 33 74 5 39 1 48 -27 80 -18 21 -47 41 -68 47 -41 11 -38 11 -73 1z"/>
<path d="M1523 3515 c-82 -35 -66 -114 30 -145 69 -22 177 11 189 57 20 77
-117 133 -219 88z"/>
<path d="M2061 3517 c-47 -58 -49 -154 -5 -207 29 -34 49 -37 82 -14 30 21 44
58 43 116 0 49 -9 75 -37 102 -19 19 -67 21 -83 3z"/>
<path d="M597 1970 c-64 -27 -140 -56 -168 -65 -59 -20 -59 -10 2 -169 23 -58
47 -106 53 -106 7 0 21 6 31 14 19 14 15 30 -40 167 -4 12 2 19 22 27 15 5 35
13 44 17 14 5 23 -10 49 -79 18 -47 36 -86 39 -86 4 0 16 6 26 14 13 9 16 19
11 32 -5 10 -19 47 -32 81 l-24 63 36 15 c20 8 40 13 44 10 4 -2 18 -33 30
-67 37 -100 36 -98 70 -86 17 5 30 12 30 14 0 9 -92 240 -98 246 -4 3 -60 -15
-125 -42z"/>
<path d="M4368 1953 l-77 -4 -17 -46 -18 -45 138 -136 138 -136 30 33 30 33
-42 43 c-42 43 -42 43 -30 82 28 86 35 93 94 93 57 0 66 9 66 68 0 22 -2 22
-117 20 -65 -1 -153 -4 -195 -5z m116 -105 c-3 -13 -12 -34 -19 -47 l-12 -25
-49 47 -49 47 68 0 c66 0 68 -1 61 -22z"/>
<path d="M750 1649 c-127 -79 -161 -114 -167 -171 -8 -68 44 -160 109 -194 55
-29 97 -19 214 52 60 36 113 69 117 73 8 8 -29 81 -41 81 -3 0 -47 -27 -98
-60 -50 -33 -103 -64 -116 -69 -71 -27 -133 83 -75 136 12 12 60 45 107 74 47
29 87 54 89 56 4 3 -30 72 -39 78 -3 2 -48 -23 -100 -56z"/>
<path d="M4156 1638 c-23 -30 -24 -35 -11 -54 67 -102 117 -186 113 -189 -2
-2 -53 7 -113 21 -60 13 -115 22 -122 20 -6 -3 -19 -19 -28 -36 l-16 -31 90
-97 c49 -53 107 -114 128 -135 l39 -37 29 30 28 29 -82 86 c-46 48 -81 89 -78
92 5 4 164 -22 190 -33 7 -2 20 9 30 26 l18 30 -56 86 c-31 47 -54 88 -52 91
3 3 51 -16 107 -41 56 -25 106 -46 111 -46 12 0 41 72 32 80 -10 9 -314 140
-324 140 -4 0 -19 -15 -33 -32z"/>
<path d="M945 1230 l-130 -130 33 -32 32 -33 103 103 c56 56 107 102 113 102
19 0 44 -36 44 -63 0 -41 -26 -59 -79 -55 l-46 3 -12 -80 c-19 -128 -18 -133
22 -152 19 -9 38 -14 41 -10 5 4 20 107 24 158 0 4 21 9 47 12 90 10 121 92
67 173 -26 39 -114 134 -124 134 -3 0 -64 -58 -135 -130z"/>
<path d="M3795 1198 c-112 -75 -126 -219 -29 -310 79 -74 183 -75 264 -2 98
89 89 218 -23 308 -31 25 -49 31 -100 34 -57 4 -66 1 -112 -30z m143 -68 c67
-41 94 -133 51 -179 -74 -79 -199 -12 -199 108 0 32 6 44 31 65 37 31 73 33
117 6z"/>
<path d="M1314 1053 c-34 -7 -105 -73 -125 -117 -42 -93 -10 -188 81 -243 63
-38 114 -42 176 -14 50 23 81 53 105 106 67 144 -71 301 -237 268z m110 -87
c111 -46 32 -244 -90 -222 -100 19 -96 167 6 218 42 22 42 22 84 4z"/>
<path d="M3542 990 c-32 -19 -33 -22 -19 -43 23 -36 99 -177 95 -177 -3 0
-247 94 -274 106 -13 6 -56 -44 -52 -61 2 -6 39 -77 83 -157 l79 -147 29 17
c16 9 31 22 34 29 3 7 -20 56 -51 110 -31 54 -52 99 -48 101 5 1 71 -24 148
-57 l139 -58 23 20 c12 11 22 26 22 32 0 15 -160 305 -169 305 -3 0 -21 -9
-39 -20z"/>
<path d="M1741 659 c-44 -84 -81 -158 -81 -164 0 -6 16 -19 35 -28 l35 -17 57
113 56 112 8 -35 c4 -19 11 -68 15 -108 6 -66 9 -74 31 -83 41 -15 47 -11 99
57 71 95 73 98 79 92 3 -3 1 -56 -5 -118 -13 -125 -11 -130 48 -130 27 0 32 4
32 23 0 12 7 85 15 162 20 190 20 181 -16 194 -18 6 -37 11 -44 11 -6 0 -46
-43 -88 -96 -45 -57 -78 -91 -81 -83 -2 8 -9 63 -14 122 -6 60 -13 111 -15
114 -3 2 -23 7 -45 10 l-39 5 -82 -153z"/>
<path d="M3057 778 c-25 -7 -39 -17 -42 -32 -5 -24 -44 -360 -41 -362 0 -1 20
-4 44 -7 l42 -5 1 36 c2 73 9 83 79 104 l64 20 22 -25 c12 -14 29 -35 37 -47
l15 -22 36 24 c20 13 36 27 36 31 0 11 -240 297 -249 296 -3 -1 -23 -6 -44
-11z m68 -139 c42 -56 39 -66 -20 -76 -37 -6 -38 -5 -32 18 4 13 7 43 7 67 0
23 2 42 4 42 2 0 21 -23 41 -51z"/>
<path d="M2289 698 c-6 -10 -23 -361 -18 -364 4 -2 66 -7 139 -10 l132 -7 -4
34 -3 34 -87 3 -88 3 0 49 0 49 89 -6 c85 -6 89 -5 96 16 4 13 4 25 2 28 -3 3
-44 8 -91 10 l-86 6 0 44 0 45 93 -3 92 -4 3 31 3 31 -83 6 c-84 7 -187 9
-189 5z"/>
<path d="M2631 663 c0 -21 8 -105 17 -188 16 -138 19 -150 37 -149 11 1 71 7
133 14 106 12 112 14 112 36 0 49 -5 51 -91 42 -45 -5 -84 -7 -87 -4 -2 3 -12
69 -20 146 l-15 140 -44 0 -43 0 1 -37z"/>
</g>
</svg>
