<?xml version="1.0" encoding="UTF-8"?><svg id="Capa_2" xmlns="http://www.w3.org/2000/svg" viewBox="0 0 130 130"><defs><style>.cls-1{fill:#01356a;}.cls-2{fill:#fff;}.cls-3{fill:#d29945;}</style></defs><g id="Capa_1-2"><g><rect class="cls-2" width="130" height="130"/><g><g><path class="cls-1" d="M99.62,113.59H30.34V34.81h6.54l.1,.65c.04,.29,.08,.58,.14,.86,.41,2.26,2.26,3.92,4.51,4.02,1.39,.07,2.82,.06,4.2,.05h1.29c5.76,0,11.52,0,17.28,0h21.53c.63,.01,1.26,0,1.89,0,2.9-.07,4.67-1.64,5.15-4.53,.03-.18,.07-.36,.11-.56l.11-.52h6.45V113.59Zm-68.71-.57H99.05V35.34h-5.42v.07c-.05,.19-.09,.36-.12,.53-.51,3.15-2.54,4.93-5.69,5.01-.54,.01-1.08,.02-1.62,.02h-21.81c-5.76-.01-11.52-.01-17.28-.01h-1.29c-1.39,0-2.82,.02-4.23-.05-2.51-.12-4.58-1.97-5.04-4.49-.05-.29-.1-.58-.14-.88l-.02-.16h-5.49V113.02Z"/><path class="cls-1" d="M67.27,37.44h-24.27c-2.49,0-3.07-.58-3.07-3.11v-1.28c0-3.83,0-7.66,0-11.5,0-2.26,.68-2.95,2.91-2.95,1.8,0,3.59,0,5.38,0,1.88,0,3.75,0,5.63,0,1.81,0,2.11-.26,2.25-2,.23-2.89,1.73-5.42,4.11-6.96,2.33-1.5,5.15-1.82,7.73-.88,3.24,1.18,5.2,3.52,5.82,6.96,.05,.29,.09,.58,.12,.87v.08c.22,1.66,.53,1.93,2.23,1.93,2.32,0,4.63,0,6.95,0h3.83c2.58,0,3.18,.59,3.18,3.15v1.16c0,3.87,0,7.74,0,11.61,0,2.25-.66,2.9-2.91,2.91-.4,0-.81,0-1.21,0-.64,0-1.29,0-1.93,0h-16.74Zm-21.22-18.27c-1.07,0-2.14,0-3.21,0-1.92,0-2.34,.43-2.34,2.38,0,3.83,0,7.66,0,11.5v1.28c0,2.21,.33,2.54,2.5,2.54h41.01c.64-.01,1.29,0,1.94,0,.4,0,.81,0,1.21,0,1.95,0,2.34-.4,2.35-2.34,0-3.87,0-7.74,0-11.61v-1.16c0-2.24-.34-2.58-2.61-2.58h-3.83c-2.32,0-4.64,0-6.96,0-1.99,0-2.53-.48-2.78-2.43v-.08c-.04-.28-.08-.56-.13-.84-.58-3.23-2.41-5.43-5.45-6.53-2.42-.88-5.05-.58-7.23,.83-2.23,1.43-3.64,3.81-3.85,6.52-.16,2.02-.71,2.52-2.81,2.52-1.88,0-3.75,0-5.63,0h-2.17Zm18.94,3.1c-3.13,0-5.7-2.55-5.71-5.7,0-1.56,.59-3.02,1.69-4.11,1.08-1.08,2.51-1.67,4.03-1.67h.05c3.13,.03,5.67,2.61,5.67,5.75,0,3.15-2.57,5.71-5.7,5.72h-.02Zm0-10.91c-1.37,0-2.66,.53-3.63,1.5-.99,.99-1.53,2.3-1.52,3.71,.02,2.83,2.32,5.13,5.15,5.13h.02c2.83,0,5.13-2.32,5.14-5.16,0-2.84-2.29-5.16-5.1-5.19h-.04Z"/><path class="cls-1" d="M65,18.72h0c-1.18,0-2.13-.92-2.18-2.1-.02-.6,.19-1.17,.6-1.61,.4-.43,.94-.67,1.52-.69,.59-.02,1.14,.2,1.56,.6,.43,.41,.67,.97,.68,1.57,0,.6-.21,1.16-.63,1.57-.41,.41-.96,.64-1.55,.64Zm0-.57h0c.44,0,.85-.17,1.15-.47,.31-.31,.47-.72,.46-1.17,0-.45-.19-.86-.51-1.17-.31-.3-.73-.47-1.15-.44-.43,.01-.83,.19-1.13,.51-.3,.32-.46,.75-.44,1.2,.03,.87,.74,1.55,1.61,1.55h0Z"/><path class="cls-1" d="M32.69,121.79c-1.02,0-2.06-.01-3.08-.06-1.39-.06-2.57-.32-3.49-.77-2.62-1.27-3.89-3.56-3.88-6.99,.02-19.4,.02-38.8,.02-58.2v-21.26c0-.44,0-.87,.04-1.31,.2-3.31,2.63-6.03,5.63-6.34,1.99-.2,4.04-.15,6.03-.11,.89,.02,1.79,.04,2.68,.04h.28v4.97h-6.54c-2.56,0-3.04,.48-3.04,3.01V113.66c0,2.49,.49,3,2.94,3,23.16,0,46.32,0,69.49,0,2.39,0,2.91-.52,2.91-2.91V34.64c0-2.33-.53-2.86-2.84-2.86h-6.73v-5.08h2.36c1.53,0,3.03,0,4.53,0h0c5.01,0,7.76,2.75,7.77,7.73,0,26.53,0,53.05,0,79.58,0,4.93-2.83,7.76-7.75,7.76-4.43,0-8.87,0-13.3,0h-13.55c-9.33,0-18.66,0-27.99,0h-7.97c-.88,0-1.7,0-2.51,0-.65,0-1.31,.01-1.98,.01Zm-1.41-94.51c-1.11,0-2.21,.03-3.31,.15-2.73,.28-4.94,2.78-5.12,5.81-.03,.42-.03,.85-.03,1.27v21.26c0,19.4,0,38.8-.02,58.2,0,3.24,1.13,5.3,3.57,6.48,.86,.42,1.96,.66,3.27,.71,1.67,.07,3.38,.06,5.03,.05,.82,0,1.64-.01,2.46,0,.04,0,.08,0,.11,0h7.77c.08,0,.12,0,.16,0,9.33,0,18.66,0,27.99,0h13.55c4.43,0,8.87,0,13.3,0,4.63,0,7.19-2.56,7.19-7.2,0-26.53,0-53.05,0-79.58,0-4.61-2.56-7.16-7.2-7.16-1.5,0-3,0-4.53,0h-1.79v3.95h6.16c2.61,0,3.4,.81,3.4,3.43V113.75c0,2.7-.78,3.48-3.47,3.48-23.16,0-46.32,0-69.49,0-2.75,0-3.5-.77-3.5-3.56V34.78c0-2.84,.74-3.58,3.61-3.58h5.97v-3.84c-.81,0-1.61-.02-2.41-.04-.9-.02-1.78-.04-2.65-.04Z"/><g><path class="cls-1" d="M64.99,21.7c-2.82,0-5.13-2.3-5.14-5.13,0-1.4,.53-2.71,1.51-3.69,.97-.98,2.27-1.51,3.65-1.51,2.86,.02,5.15,2.35,5.15,5.19,0,2.83-2.31,5.15-5.14,5.16h-.02Zm-.06-7.38c-.58,.02-1.13,.26-1.52,.69-.41,.43-.62,1-.6,1.61,.04,1.17,1,2.09,2.18,2.09,.6,0,1.15-.23,1.56-.64,.41-.42,.63-.97,.63-1.57-.02-1.2-.99-2.18-2.18-2.18h-.07Z"/><path class="cls-1" d="M65,11.64h.04c2.66,.02,4.83,2.22,4.82,4.9,0,2.68-2.18,4.86-4.87,4.87-2.67,0-4.85-2.18-4.86-4.85,0-1.32,.5-2.56,1.42-3.49,.92-.92,2.14-1.43,3.44-1.43m0,7.36h0c.67,0,1.29-.26,1.76-.73,.47-.47,.72-1.1,.71-1.77-.02-1.35-1.12-2.46-2.46-2.46h-.08c-.66,.02-1.27,.3-1.72,.78-.46,.49-.7,1.13-.67,1.81,.05,1.32,1.13,2.36,2.46,2.37h0m0-7.92c-3.02,0-5.45,2.45-5.44,5.49,.02,2.99,2.45,5.42,5.43,5.42h.02c2.99,0,5.42-2.44,5.42-5.44,0-3.01-2.4-5.45-5.39-5.47h-.04Zm0,7.36h0c-1.02,0-1.86-.8-1.89-1.82-.04-1.08,.78-1.97,1.84-2h.06c1.03,0,1.88,.84,1.89,1.9,.01,1.07-.83,1.93-1.9,1.93h0Z"/></g><g><path class="cls-1" d="M34.59,124.71c-.52,0-1.03,0-1.55,0-1.57,0-3.41-.02-5.21-.2-4.51-.43-8.16-4.3-8.48-8.98-.04-.55-.06-1.1-.06-1.62v-23.24c0-18.74,0-37.48-.01-56.23,0-3.78,1.29-6.62,3.95-8.68,1.77-1.38,3.86-2.04,6.39-2.04h.11c.88,0,1.75,0,2.64,0h4.61v-1.03c0-.49,0-.95,0-1.41,.03-3.61,2.02-5.62,5.61-5.65,1.16-.01,2.33-.01,3.49-.01h7.12l.04-.22c.71-3.7,2.5-6.41,5.45-8.3,1.9-1.22,4-1.83,6.24-1.83h.27c4.55,.1,10,2.82,11.63,10.14l.05,.22h5.33c.6,0,2.77-.01,3.32-.01,.69,0,1.38,0,2.06,.02,3.39,.07,5.37,2.07,5.44,5.47,0,.49,0,.98,0,1.52v1.09h4.59c.91,0,1.81,0,2.7,0h.08c2.77,0,5.04,.82,6.94,2.51,1.92,1.71,3.03,3.88,3.29,6.42,.06,.61,.08,1.23,.08,1.96v23.35c0,18.63,0,37.25,.02,55.87,0,3.9-1.32,6.8-4.04,8.87-1.73,1.31-3.77,1.98-6.06,1.98-9.12,0-18.24,0-27.37,0H34.59Zm-3.3-98.01c-1.31,0-2.38,.05-3.38,.15-3.01,.31-5.43,3.03-5.63,6.34-.03,.44-.04,.87-.04,1.31v21.27c0,19.4,0,38.79-.02,58.19,0,3.44,1.27,5.72,3.88,6.99,.93,.45,2.1,.71,3.49,.77,.9,.04,1.87,.06,3.07,.06,.66,0,1.32,0,1.99-.01,.66,0,1.32-.01,1.98-.01h8.44c6.85,0,13.62,0,20.4,0h34.51c4.93,0,7.75-2.83,7.75-7.76,0-26.53,0-53.05,0-79.58,0-4.98-2.76-7.72-7.77-7.73h-6.89v5.08h6.73c2.31,0,2.84,.54,2.84,2.87V113.74c0,2.39-.52,2.91-2.91,2.91H30.27c-2.44,0-2.94-.5-2.94-3V34.78c0-2.53,.48-3.01,3.04-3.01h6.54v-4.97h-.28c-.9,0-1.79-.02-2.68-.04-.89-.02-1.77-.04-2.65-.04Zm-.96,86.87H99.62V34.77h-6.45l-.11,.53c-.04,.19-.08,.37-.11,.55-.47,2.89-2.25,4.46-5.15,4.53-.63,.02-1.26,.02-1.89,.02H44.59c-.82,0-1.89-.01-2.97-.06-2.24-.11-4.1-1.76-4.5-4.02-.05-.29-.09-.57-.14-.86l-.1-.65h-6.54V113.59ZM42.84,18.6c-2.23,0-2.9,.69-2.91,2.95,0,3.84,0,7.68,0,11.52v1.26c0,2.53,.58,3.11,3.07,3.11h41.01c.33,0,.65,0,.97,0h2.17c2.26,0,2.91-.65,2.91-2.9,0-3.86,0-7.72,0-11.59v-1.19c0-2.56-.6-3.15-3.18-3.15h-6.49c-1.43,0-2.86,0-4.28,0-1.7,0-2.01-.27-2.22-1.93v-.07c-.05-.29-.08-.58-.13-.87-.62-3.44-2.57-5.79-5.82-6.96-.96-.35-1.96-.53-2.97-.53-4.67,0-8.49,3.6-8.87,8.36-.14,1.73-.43,2-2.25,2h-11.01Z"/><path class="cls-1" d="M64.93,5.57c.09,0,.17,0,.26,0,4.44,.1,9.76,2.75,11.36,9.91l.1,.44h5.57c.55,0,1.1,0,1.65,0,.55,0,1.1,0,1.65,0,.69,0,1.37,0,2.06,.02,3.22,.07,5.1,1.96,5.16,5.2,0,.49,0,.98,0,1.51,0,.26,0,.53,0,.81v.57h4.91c.9,0,1.79,0,2.67,0h.08c2.7,0,4.9,.8,6.75,2.44,1.87,1.67,2.95,3.77,3.2,6.24,.06,.6,.07,1.21,.07,1.93,0,7.78,0,15.56,0,23.33,0,18.32,0,37.26,.02,55.89,0,3.86-1.24,6.61-3.93,8.64-1.68,1.28-3.66,1.92-5.88,1.93-9.16,0-18.32,0-27.47,0-8.4,0-16.81,0-25.21,0h-13.37c-.51,0-1.02,0-1.52,0-1.56,0-3.4-.02-5.19-.2-4.38-.42-7.91-4.17-8.23-8.72-.04-.55-.06-1.08-.06-1.6v-22.73c0-18.59,0-37.82-.01-56.73,0-3.68,1.25-6.45,3.84-8.46,1.72-1.34,3.76-1.98,6.22-1.98h.11c.88,0,1.76,0,2.64,0,.69,0,1.38,0,2.09,0,.73,0,1.47,0,2.23,0h.57v-1.31c0-.49,0-.95,0-1.41,.03-3.43,1.92-5.34,5.33-5.37,1.17,0,2.33-.01,3.5-.01,.91,0,1.83,0,2.74,0,.91,0,1.83,0,2.77,0h1.82l.09-.46c.7-3.61,2.44-6.27,5.33-8.11,1.86-1.19,3.9-1.79,6.09-1.79m-14.34,12.75h-4.43c-1.11,0-2.22,0-3.32,0-2.38,0-3.19,.82-3.19,3.23,0,3.93,0,7.86,0,11.78v.99c0,2.66,.72,3.39,3.35,3.39h41.02c.32,0,.65,0,.97,0s.64,0,.96,0c.32,0,.64,0,.97,0h.24c2.42,0,3.19-.78,3.2-3.19,0-3.85,0-7.7,0-11.56v-1.22c0-2.69-.75-3.43-3.46-3.43h-6.49c-1.43,0-2.86,0-4.29,0-1.55,0-1.75-.18-1.94-1.68v-.1c-.05-.29-.08-.57-.14-.86-.63-3.55-2.65-5.97-6-7.18-.99-.36-2.03-.54-3.07-.54-4.82,0-8.76,3.71-9.15,8.62-.13,1.57-.31,1.73-1.96,1.74-1.09,0-2.17,0-3.26,0m42.22,13.74h7.01c2.15,0,2.55,.41,2.55,2.58,0,26.37,0,52.74,0,79.11,0,2.23-.39,2.63-2.62,2.63H30.27c-2.28,0-2.65-.38-2.65-2.71V34.78c0-2.37,.36-2.73,2.76-2.73h6.82v-5.54h-.57c-.89,0-1.8-.02-2.68-.04-.87-.02-1.77-.04-2.66-.04-1.32,0-2.4,.05-3.4,.15-3.14,.32-5.67,3.16-5.89,6.61-.02,.4-.04,.84-.04,1.32v20.17c0,19.43,0,39.52-.02,59.29,0,3.56,1.32,5.93,4.05,7.25,.96,.47,2.18,.73,3.6,.8,.9,.04,1.88,.06,3.08,.06,.66,0,1.32,0,1.99-.01,.66,0,1.32-.01,1.98-.01h.51s.06,0,.12,.01h7.75s.06,0,.09,0h.04c6.61,0,13.22,0,19.83,0h27.38c2.54,0,5.09,0,7.63,0,5.11,0,8.04-2.94,8.04-8.05,0-26.53,0-53.05,0-79.58,0-5.08-2.93-8.01-8.05-8.02-.82,0-1.63,0-2.45,0h-4.72v5.65m-7.36,8.07h-28.93l-9.41-.02h-.06c-.41,0-.82,0-1.23,0-.41,0-.82,0-1.23,0-.82,0-1.89,0-2.96-.06-2.11-.1-3.85-1.66-4.24-3.79-.05-.28-.09-.56-.13-.85l-.06-.41-.07-.48h-7.07V113.87H99.9V34.49h-6.97l-.09,.46-.06,.28c-.04,.2-.08,.39-.11,.58-.45,2.74-2.13,4.23-4.87,4.29-.63,.02-1.26,.02-1.88,.02h-.47M64.93,5c-2.29,0-4.44,.63-6.39,1.88-3.09,1.97-4.88,4.85-5.58,8.48h-1.38c-1.83,0-3.66,0-5.49,0-1.17,0-2.34,0-3.51,.01-3.73,.03-5.85,2.19-5.89,5.93,0,.69,0,1.37,0,2.15-1.49,0-2.92,0-4.32,0-.89,0-1.76,0-2.64,0h-.11c-2.41,0-4.63,.61-6.56,2.1-2.91,2.25-4.06,5.28-4.06,8.91,.02,26.49,.01,52.97,.01,79.46,0,.55,.02,1.09,.06,1.64,.33,4.75,3.99,8.79,8.74,9.25,1.74,.17,3.49,.2,5.24,.2,.52,0,1.03,0,1.55,0h13.34c8.4,0,16.81,0,25.21,0,9.16,0,18.32,0,27.48,0,2.28,0,4.39-.65,6.23-2.04,3.01-2.29,4.16-5.38,4.15-9.1-.03-26.41-.01-52.82-.02-79.23,0-.66,0-1.33-.08-1.99-.27-2.64-1.4-4.84-3.38-6.61-2.03-1.81-4.44-2.59-7.13-2.59h-.08c-.89,0-1.78,0-2.67,0-1.42,0-2.86,0-4.34,0,0-.87,.01-1.6,0-2.33-.07-3.54-2.18-5.68-5.71-5.75-.69-.01-1.38-.02-2.07-.02-1.1,0-2.2,.01-3.3,.01h-.02c-.68,0-1.37,0-2.05,0-1.02,0-2.04,0-3.05,0-1.66-7.47-7.28-10.26-11.9-10.36-.09,0-.18,0-.27,0h0Zm-14.34,13.88c1.09,0,2.18,0,3.26,0,1.92,0,2.38-.35,2.53-2.26,.39-4.82,4.31-8.1,8.59-8.1,.95,0,1.92,.16,2.88,.51,3.14,1.14,5.04,3.43,5.63,6.75,.05,.31,.09,.62,.13,.93,.22,1.79,.66,2.17,2.5,2.18,1.43,0,2.86,0,4.29,0,1.72,0,3.43,0,5.15,0,.45,0,.89,0,1.34,0,2.42,0,2.9,.47,2.9,2.87,0,4.26,0,8.52,0,12.77,0,2.1-.53,2.62-2.63,2.63-.08,0-.16,0-.24,0-.64,0-1.28,0-1.93,0-.33,0-.65,0-.98,0h-16.74c-8.09,0-16.18,0-24.27,0-2.33,0-2.78-.46-2.79-2.82,0-4.26,0-8.52,0-12.77,0-2.1,.55-2.66,2.62-2.67,1.11,0,2.22,0,3.32,0,1.48,0,2.95,0,4.43,0h0Zm42.79,12.6v-4.51c1.41,0,2.79,0,4.16,0,.82,0,1.63,0,2.45,0,4.81,0,7.48,2.66,7.48,7.45,0,26.53,0,53.05,0,79.58,0,4.79-2.7,7.48-7.47,7.48-2.54,0-5.09,0-7.63,0-3.81,0-7.61,0-11.42,0h-.54c-5.14,0-10.28,0-15.42,0-6.61,0-13.22,0-19.83,0-.06,0-.1,0-.16,0h-7.73c-.05,0-.1,0-.15,0-.16,0-.32,0-.47,0-1.32,0-2.64,.02-3.96,.02-1.02,0-2.04-.01-3.06-.06-1.14-.05-2.37-.25-3.38-.74-2.76-1.34-3.73-3.74-3.73-6.74,.03-26.49,.02-52.97,.02-79.46,0-.43,0-.86,.04-1.29,.19-3.03,2.38-5.77,5.38-6.08,1.11-.11,2.22-.15,3.35-.15,1.76,0,3.54,.09,5.34,.09v4.41c-1.32,0-2.61,0-3.89,0-.79,0-1.58,0-2.36,0-2.71,0-3.32,.6-3.32,3.3,0,26.29,0,52.58,0,78.88,0,2.65,.62,3.28,3.22,3.28,11.52,0,23.04,0,34.55,0s23.29,0,34.93,0c2.54,0,3.19-.65,3.19-3.19,0-26.37,0-52.74,0-79.11,0-2.48-.67-3.15-3.12-3.15-.82,0-1.64,0-2.47,0-1.32,0-2.64,0-3.98,0h0Zm-7.7,9.2h.23c.63,0,1.26,0,1.9-.02,3.03-.07,4.93-1.77,5.42-4.77,.04-.27,.1-.53,.17-.84h5.94V113.3H30.62V35.09h6.02c.07,.43,.12,.86,.2,1.28,.42,2.35,2.37,4.14,4.77,4.26,.99,.05,1.99,.06,2.98,.06,.82,0,1.64,0,2.46,0h.06c3.14,0,6.27,0,9.41,0,3.58,0,7.16,0,10.75,0h18.41Z"/></g></g><rect class="cls-1" x="37.28" y="77.31" width="55.44" height="3.82" rx="1.91" ry="1.91"/><rect class="cls-1" x="37.28" y="88.61" width="55.44" height="3.82" rx="1.91" ry="1.91"/><rect class="cls-1" x="37.28" y="99.92" width="55.44" height="3.82" rx="1.91" ry="1.91"/><path class="cls-3" d="M58.74,69.57l-7.7-10.19c-.76-1-.56-2.42,.44-3.18,1-.76,2.42-.56,3.18,.44l4.82,6.38,16.21-13.59c.96-.81,2.39-.68,3.2,.28,.81,.96,.68,2.39-.28,3.2l-19.87,16.65Z"/></g></g></g></svg>