<?xml version="1.0" encoding="UTF-8"?><svg id="Capa_2" xmlns="http://www.w3.org/2000/svg" viewBox="0 0 130 130"><defs><style>.cls-1{fill:#01356a;}.cls-2{fill:#fff;}.cls-3{fill:#d29945;}</style></defs><g id="Capa_1-2"><g><rect class="cls-2" width="130" height="130"/><g><path class="cls-1" d="M29.75,89.05v11.1h-12.53v-11.1h12.53m1.25-4.52H15.98c-1.81,0-3.28,1.47-3.28,3.28v13.59c0,1.81,1.47,3.28,3.28,3.28h15.02c1.81,0,3.28-1.47,3.28-3.28v-13.59c0-1.81-1.47-3.28-3.28-3.28h0Z"/><path class="cls-1" d="M57.42,75.42v24.74h-12.53v-24.74h12.53m1.25-4.52h-15.02c-1.81,0-3.28,1.47-3.28,3.28v27.23c0,1.81,1.47,3.28,3.28,3.28h15.02c1.81,0,3.28-1.47,3.28-3.28v-27.23c0-1.81-1.47-3.28-3.28-3.28h0Z"/><path class="cls-1" d="M84.9,60.62v39.53h-12.53V60.62h12.53m1.25-4.52h-15.02c-1.81,0-3.28,1.47-3.28,3.28v42.02c0,1.81,1.47,3.28,3.28,3.28h15.02c1.81,0,3.28-1.47,3.28-3.28V59.37c0-1.81-1.47-3.28-3.28-3.28h0Z"/><path class="cls-1" d="M112.78,46.93v53.23h-12.53V46.93h12.53m1.25-4.52h-15.02c-1.81,0-3.28,1.47-3.28,3.28v55.72c0,1.81,1.47,3.28,3.28,3.28h15.02c1.81,0,3.28-1.47,3.28-3.28V45.68c0-1.81-1.47-3.28-3.28-3.28h0Z"/><path class="cls-3" d="M92.68,5l-.67,2.99,11.58,2.57L22.38,58.22c-1.04,.61-1.39,1.95-.78,2.99,.41,.69,1.14,1.08,1.89,1.08,.38,0,.76-.1,1.1-.3L105.81,14.32l-3.41,11.37,2.93,.88,5.27-17.59-17.93-3.98Z"/><g><path class="cls-3" d="M16.87,111.77c1.68,0,2.91,.36,3.69,1.08s1.16,1.72,1.16,2.99c0,.57-.09,1.12-.26,1.64s-.45,.98-.84,1.39-.91,.72-1.56,.96-1.45,.35-2.4,.35h-1.19v4.64h-2.77v-13.05h4.17Zm-.14,2.27h-1.26v3.88h.91c.52,0,.97-.07,1.35-.21s.68-.35,.88-.64,.31-.67,.31-1.13c0-.64-.18-1.12-.54-1.43s-.91-.47-1.66-.47Z"/><path class="cls-3" d="M27.99,111.77c1.18,0,2.16,.14,2.93,.43s1.34,.72,1.72,1.29,.56,1.31,.56,2.19c0,.6-.11,1.12-.34,1.56s-.52,.82-.89,1.13-.77,.56-1.2,.76l3.84,5.69h-3.07l-3.12-5.01h-1.47v5.01h-2.77v-13.05h3.8Zm-.2,2.27h-.84v3.53h.89c.92,0,1.57-.15,1.97-.46s.59-.76,.59-1.35-.21-1.06-.64-1.32-1.08-.39-1.98-.39Z"/><path class="cls-3" d="M48.1,118.28c0,1.01-.13,1.92-.38,2.75s-.63,1.53-1.14,2.13-1.15,1.05-1.93,1.37-1.7,.48-2.77,.48-1.99-.16-2.77-.48-1.42-.78-1.93-1.37-.89-1.31-1.14-2.13-.38-1.75-.38-2.76c0-1.35,.22-2.53,.67-3.53s1.13-1.78,2.05-2.33,2.1-.83,3.52-.83,2.58,.28,3.5,.83,1.59,1.33,2.04,2.34,.67,2.19,.67,3.54Zm-9.53,0c0,.91,.11,1.69,.34,2.35s.59,1.16,1.08,1.52,1.12,.53,1.89,.53,1.42-.18,1.91-.53,.84-.86,1.07-1.52,.33-1.44,.33-2.35c0-1.37-.26-2.45-.77-3.23s-1.35-1.18-2.53-1.18c-.78,0-1.42,.18-1.91,.53s-.85,.86-1.08,1.52-.34,1.44-.34,2.36Z"/><path class="cls-3" d="M55.76,117.49h5.18v6.77c-.68,.23-1.4,.41-2.13,.54s-1.57,.2-2.51,.2c-1.3,0-2.4-.26-3.3-.77s-1.59-1.27-2.06-2.27-.71-2.23-.71-3.69c0-1.37,.26-2.55,.79-3.55s1.3-1.77,2.31-2.32,2.25-.82,3.72-.82c.69,0,1.37,.07,2.04,.22s1.28,.34,1.83,.58l-.92,2.21c-.4-.2-.85-.37-1.37-.51s-1.05-.21-1.61-.21c-.8,0-1.5,.18-2.09,.55s-1.05,.89-1.38,1.55-.49,1.44-.49,2.34c0,.85,.12,1.61,.35,2.26s.6,1.17,1.1,1.54,1.15,.56,1.96,.56c.39,0,.72-.02,1-.06s.53-.08,.76-.12v-2.72h-2.47v-2.3Z"/><path class="cls-3" d="M75.63,124.82h-3.52l-5.68-9.88h-.08c.02,.41,.04,.82,.06,1.24s.04,.83,.05,1.25,.04,.83,.05,1.25v6.14h-2.47v-13.05h3.49l5.67,9.78h.06c-.01-.4-.03-.81-.04-1.21s-.03-.8-.05-1.2-.03-.8-.04-1.2v-6.18h2.49v13.05Z"/><path class="cls-3" d="M90.76,118.28c0,1.01-.13,1.92-.38,2.75s-.63,1.53-1.14,2.13-1.15,1.05-1.93,1.37-1.7,.48-2.77,.48-1.99-.16-2.77-.48-1.42-.78-1.93-1.37-.89-1.31-1.14-2.13-.38-1.75-.38-2.76c0-1.35,.22-2.53,.67-3.53s1.13-1.78,2.05-2.33,2.1-.83,3.52-.83,2.58,.28,3.5,.83,1.59,1.33,2.04,2.34,.67,2.19,.67,3.54Zm-9.53,0c0,.91,.11,1.69,.34,2.35s.59,1.16,1.08,1.52,1.12,.53,1.89,.53,1.42-.18,1.91-.53,.84-.86,1.07-1.52,.33-1.44,.33-2.35c0-1.37-.26-2.45-.77-3.23s-1.35-1.18-2.53-1.18c-.78,0-1.42,.18-1.91,.53s-.85,.86-1.08,1.52-.34,1.44-.34,2.36Z"/><path class="cls-3" d="M101.18,121.2c0,.77-.19,1.45-.56,2.02s-.92,1.01-1.64,1.32-1.59,.46-2.61,.46c-.45,0-.89-.03-1.33-.09s-.85-.15-1.24-.26-.77-.26-1.13-.43v-2.57c.62,.27,1.26,.52,1.93,.74s1.33,.33,1.98,.33c.45,0,.82-.06,1.09-.18s.48-.28,.6-.49,.19-.45,.19-.71c0-.33-.11-.61-.33-.84s-.52-.45-.91-.65-.82-.42-1.3-.65c-.3-.14-.63-.32-.99-.52s-.7-.46-1.02-.75-.58-.66-.79-1.08-.31-.94-.31-1.53c0-.78,.18-1.45,.54-2s.87-.98,1.53-1.27,1.45-.44,2.35-.44c.68,0,1.33,.08,1.94,.24s1.26,.39,1.93,.68l-.89,2.15c-.6-.24-1.14-.43-1.62-.57s-.96-.2-1.46-.2c-.35,0-.64,.06-.88,.17s-.43,.26-.55,.46-.19,.43-.19,.69c0,.31,.09,.57,.27,.78s.46,.42,.82,.61,.82,.43,1.37,.69c.67,.32,1.24,.64,1.71,.99s.84,.74,1.09,1.21,.38,1.03,.38,1.72Z"/><path class="cls-3" d="M103.54,124.82v-13.05h2.77v13.05h-2.77Z"/><path class="cls-3" d="M117.3,121.2c0,.77-.19,1.45-.56,2.02s-.92,1.01-1.64,1.32-1.59,.46-2.61,.46c-.45,0-.89-.03-1.33-.09s-.85-.15-1.24-.26-.77-.26-1.13-.43v-2.57c.62,.27,1.26,.52,1.93,.74s1.33,.33,1.98,.33c.45,0,.82-.06,1.09-.18s.48-.28,.6-.49,.19-.45,.19-.71c0-.33-.11-.61-.33-.84s-.52-.45-.91-.65-.82-.42-1.3-.65c-.3-.14-.63-.32-.99-.52s-.7-.46-1.02-.75-.58-.66-.79-1.08-.31-.94-.31-1.53c0-.78,.18-1.45,.54-2s.87-.98,1.53-1.27,1.45-.44,2.35-.44c.68,0,1.33,.08,1.94,.24s1.26,.39,1.93,.68l-.89,2.15c-.6-.24-1.14-.43-1.62-.57s-.96-.2-1.46-.2c-.35,0-.64,.06-.88,.17s-.43,.26-.55,.46-.19,.43-.19,.69c0,.31,.09,.57,.27,.78s.46,.42,.82,.61,.82,.43,1.37,.69c.67,.32,1.24,.64,1.71,.99s.84,.74,1.09,1.21,.38,1.03,.38,1.72Z"/></g></g></g></g></svg>