<?xml version="1.0" encoding="UTF-8"?><svg id="Capa_2" xmlns="http://www.w3.org/2000/svg" viewBox="0 0 130 130"><defs><style>.cls-1{fill:#01356a;}.cls-2{fill:#fff;}.cls-3{fill:#d29945;}</style></defs><g id="Capa_1-2"><g><rect class="cls-2" width="130" height="130"/><g><path class="cls-1" d="M25.43,103.38v14.47H9.32v-14.47H25.43m1.19-4.32H8.13c-1.73,0-3.13,1.4-3.13,3.13v16.85c0,1.73,1.4,3.13,3.13,3.13H26.62c1.73,0,3.13-1.4,3.13-3.13v-16.85c0-1.73-1.4-3.13-3.13-3.13h0Z"/><path class="cls-1" d="M57.18,87.74v30.11h-16.11v-30.11h16.11m1.19-4.32h-18.49c-1.73,0-3.13,1.4-3.13,3.13v32.49c0,1.73,1.4,3.13,3.13,3.13h18.49c1.73,0,3.13-1.4,3.13-3.13v-32.49c0-1.73-1.4-3.13-3.13-3.13h0Z"/><path class="cls-1" d="M88.69,70.77v47.09h-16.11v-47.09h16.11m1.19-4.32h-18.49c-1.73,0-3.13,1.4-3.13,3.13v49.47c0,1.73,1.4,3.13,3.13,3.13h18.49c1.73,0,3.13-1.4,3.13-3.13v-49.47c0-1.73-1.4-3.13-3.13-3.13h0Z"/><path class="cls-1" d="M120.68,55.06v62.8h-16.11V55.06h16.11m1.19-4.32h-18.49c-1.73,0-3.13,1.4-3.13,3.13V119.04c0,1.73,1.4,3.13,3.13,3.13h18.49c1.73,0,3.13-1.4,3.13-3.13V53.86c0-1.73-1.4-3.13-3.13-3.13h0Z"/><path class="cls-3" d="M96.75,7.83l-.76,3.43,13.29,2.95L16.11,68.88c-1.19,.7-1.59,2.24-.89,3.43,.47,.8,1.3,1.24,2.16,1.24,.43,0,.87-.11,1.27-.35L111.82,18.52l-3.91,13.05,3.36,1,6.04-20.18-20.57-4.56Z"/></g></g></g></svg>