<?xml version="1.0" encoding="UTF-8"?><svg id="Capa_2" xmlns="http://www.w3.org/2000/svg" viewBox="0 0 130 130"><defs><style>.cls-1{fill:#01356a;}.cls-2{fill:#fff;}.cls-3{fill:#d29945;}</style></defs><g id="Capa_1-2"><g><rect class="cls-2" width="130" height="130"/><g><g id="FEfevv"><g><path class="cls-1" d="M90.94,77.89c.35,.28,.72,.51,1.02,.82,9.94,9.93,19.88,19.88,29.83,29.81,2.84,2.83,3.93,6.13,2.73,10.03-1.87,6.09-9.64,8.46-14.6,4.46-.58-.46-1.13-.97-1.65-1.49-9.86-9.85-19.72-19.71-29.57-29.57-.3-.3-.53-.68-.79-1.01-12.46,7.8-25.59,9.94-39.53,5.79-10.63-3.16-19.14-9.46-25.3-18.66C.03,58.59,3.31,33.97,19.14,18.48,36.12,1.86,62.48,.34,81.38,15.52c17.09,13.72,23.96,40,9.56,62.37ZM9.73,51.93c.04,23.21,19,42.14,42.23,42.15,23.12,0,42.15-19.03,42.12-42.13-.03-23.24-18.97-42.2-42.17-42.21-23.17-.01-42.22,19.04-42.18,42.2Zm82.11,46.51c-.06-.06,.09,.12,.26,.28,6.62,6.62,13.25,13.24,19.87,19.86,.22,.22,.45,.43,.69,.63,2.78,2.27,6.88,.83,7.58-2.69,.37-1.85-.39-3.33-1.68-4.62-6.63-6.61-13.25-13.24-19.87-19.86-.16-.16-.34-.29-.51-.44l.22,.31c-2.18,2.16-4.36,4.33-6.56,6.52Zm-9.73-10.05c1.89,1.89,4.06,4.05,6.42,6.41,2.09-2.06,4.27-4.21,6.33-6.24-2.44-2.45-4.61-4.62-6.46-6.48-2.07,2.08-4.21,4.23-6.29,6.31Z"/><path class="cls-1" d="M51.87,14.41c20.58-.04,37.48,16.83,37.53,37.46,.04,20.58-16.84,37.48-37.46,37.52-20.58,.04-37.49-16.84-37.53-37.46-.04-20.58,16.83-37.48,37.46-37.52Zm.07,4.69c-18-.04-32.79,14.71-32.84,32.76-.05,18,14.72,32.79,32.77,32.84,18,.04,32.8-14.71,32.84-32.76,.04-18-14.71-32.79-32.77-32.84Z"/></g></g><path class="cls-3" d="M48.93,54.5l-1.09-16.3c-.2-3.17-.31-5.45-.31-6.84,0-1.88,.49-3.35,1.48-4.41s2.28-1.58,3.9-1.58c1.95,0,3.25,.68,3.91,2.02,.66,1.35,.99,3.29,.99,5.83,0,1.5-.08,3.02-.24,4.56l-1.46,16.77c-.16,2-.5,3.53-1.02,4.59-.52,1.07-1.38,1.6-2.59,1.6s-2.08-.52-2.55-1.55c-.48-1.03-.82-2.6-1.02-4.71Zm3.78,22.39c-1.38,0-2.59-.45-3.62-1.34-1.03-.9-1.55-2.15-1.55-3.76,0-1.41,.49-2.6,1.48-3.59,.99-.99,2.19-1.48,3.62-1.48s2.65,.49,3.66,1.48c1.01,.99,1.51,2.18,1.51,3.59,0,1.59-.51,2.84-1.53,3.74-1.02,.91-2.21,1.36-3.57,1.36Z"/></g></g></g></svg>