<?xml version="1.0" encoding="UTF-8"?><svg id="Capa_2" xmlns="http://www.w3.org/2000/svg" viewBox="0 0 130 130"><defs><style>.cls-1{fill:#01356a;}.cls-2{fill:#fff;}.cls-3{fill:#d29945;}</style></defs><g id="Capa_1-2"><g><rect class="cls-2" width="130" height="130"/><g><g><path class="cls-1" d="M104.75,95.34c-.24-6.45-3.55-11.18-9.67-13.63-5.84-2.34-11.72-4.56-17.59-6.83-2.69-1.04-2.66-1.04-2.72-3.95-.02-.85,.26-1.38,.91-1.92,2.82-2.37,4.64-5.38,5.43-8.97,.16-.73,.36-.99,1.16-1.04,3.1-.19,5.38-1.72,6.58-4.61,1.2-2.89,.67-5.58-1.41-7.9-.48-.54-.64-1.05-.66-1.74-.1-3.04,.06-6.13-.47-9.1-1.81-10.1-10.94-17.5-21.27-17.53-10.4-.03-19.6,7.35-21.43,17.47-.55,3.03-.33,6.2-.53,9.3-.03,.52-.26,1.14-.61,1.52-3.75,4.07-2.02,10.64,3.28,12.26,.88,.27,1.82,.33,2.8,.5,.05,.19,.13,.46,.18,.72,.66,3.21,2.04,6.11,4.52,8.22,1.57,1.33,2.06,2.72,1.88,4.63-.07,.76-.24,1.16-.97,1.44-6.29,2.42-12.56,4.88-18.84,7.33-6.56,2.56-10.24,7.93-10.25,14.96,0,7.68,0,15.37,0,23.05,0,3.32,1.65,4.96,4.98,4.96,13.68,0,27.36,0,41.03,0h3.76c.25,0,.51,.02,.76,0h10.16c4.93,0,9.86,.01,14.8-.01,2.39-.01,4.24-1.83,4.25-4.21,.03-8.31,.23-16.62-.07-24.92Zm-18.41-43.94c.08,2.56-2,4.57-4.71,4.47v-8.6c2.49-.25,4.63,1.64,4.71,4.14Zm-38.02,4.49c-1.79,.07-3.15-.59-4.06-2.05-.94-1.51-.95-3.1,0-4.6,.91-1.45,2.26-2.15,4.07-2.03v8.68Zm.21-12.69c-.04,.27-.12,.53-.18,.82l-1.99,.13c-1.94-14.66,8.82-23.43,19.65-22.89,9.53,.48,17.44,8.52,17.66,18.04,.04,1.59,0,3.17,0,4.85-.73-.04-1.4-.08-2.12-.13-.1-.51-.17-.98-.29-1.45-1.29-5.18-6.88-7.95-11.86-5.89-.8,.33-1.58,.7-2.41,.95-2.15,.64-4.15,.12-6.13-.78-3.41-1.54-6.62-1.08-9.5,1.31-1.57,1.3-2.51,3.01-2.84,5.04Zm3.14,15c-.22-2.43-.18-4.2-.18-6.65-.04,0,.05-.71,0-.71,0-1.97-.02-3.94,0-5.92,.06-4.45,4.05-7.06,8.1-5.2,3.64,1.68,7.15,1.65,10.79-.03,3.73-1.72,7.79,.55,7.94,4.58,.18,4.69,.23,9.42-.14,14.1-.5,6.4-6.61,11.5-13.17,11.44-6.91-.06-12.75-5.06-13.35-11.62Zm50.04,61.5c0,1.31-.35,1.66-1.66,1.66-2.28,0-4.57,0-6.85,0-.27,0-.53-.04-.86-.07v-1.29c0-8.27,0-16.55,0-24.82,0-.44-.02-.91-.15-1.33-.25-.76-.86-1.06-1.63-.96-.74,.09-1.18,.54-1.29,1.28-.06,.37-.03,.76-.03,1.14,0,8.27,0,16.55,0,24.82v1.24c-1.76,0-3.41,0-5.03,0h-8.61c-.27-.02-.54,0-.81,0h-3.67c-.58,0-1.16,0-1.75,0h-19.19v-.08h-9.46v-1.18c0-8.27,0-16.54,0-24.81,0-.38,.02-.77-.04-1.14-.11-.73-.56-1.18-1.3-1.27-.78-.09-1.38,.22-1.63,.98-.13,.42-.15,.88-.15,1.33,0,8.27,0,16.54,0,24.81v1.37c-1.68,0-3.3,0-4.91,0-1.04,0-2.08,0-3.11,0-.89,0-1.34-.46-1.34-1.35,0-1.28,0-2.56,0-3.84,0-6.54,0-13.08,0-19.62,0-5.8,2.92-10.06,8.29-12.15,3.7-1.44,7.41-2.87,11.1-4.35,.14-.05,.26-.09,.38-.11l3.73-1.44h-.02c1.45-.58,2.74-1.11,4.06-1.58,.02,0,.05,0,.07-.01l2.54-.98v-4.29s5.54,3.49,13.24,0v4.17l11.55,4.62c3.54,1.4,7.09,2.78,10.64,4.14,4.04,1.54,6.46,4.49,7.54,8.6,.24,.93,.36,1.91,.37,2.87,.03,7.89,.02,15.78,.02,23.68Z"/><path class="cls-1" d="M75.36,125c-.09,0-.19,0-.29,0H30.07c-3.59,0-5.49-1.89-5.49-5.47v-4.83c0-6.08,0-12.15,0-18.23,0-7.19,3.86-12.81,10.57-15.43l2.74-1.07c5.36-2.1,10.73-4.19,16.1-6.26,.48-.18,.59-.35,.65-1.01,.17-1.81-.32-3.03-1.7-4.2-2.36-2-3.94-4.86-4.69-8.5-.03-.13-.06-.26-.09-.38-.2-.03-.4-.06-.6-.09-.68-.1-1.31-.19-1.95-.38-2.64-.81-4.64-2.87-5.36-5.52-.73-2.68-.03-5.51,1.86-7.56,.26-.28,.45-.77,.48-1.21,.07-1.08,.09-2.19,.1-3.26,.03-2.01,.07-4.09,.43-6.1,1.85-10.23,11.26-17.9,21.93-17.88,10.58,.03,19.94,7.75,21.77,17.95,.39,2.18,.41,4.45,.44,6.64,0,.84,.02,1.69,.05,2.53,.02,.63,.16,1.01,.53,1.42,2.23,2.51,2.75,5.42,1.49,8.43-1.25,3.01-3.68,4.72-7.02,4.92-.52,.03-.58,.08-.7,.64-.82,3.71-2.7,6.83-5.6,9.25-.55,.46-.74,.86-.73,1.52v.11q.05,2.46,2.39,3.37c1.8,.7,3.6,1.39,5.4,2.08,4,1.54,8.14,3.13,12.19,4.75,6.29,2.52,9.74,7.39,9.99,14.09h0c.23,6.18,.17,12.47,.12,18.55-.02,2.13-.04,4.26-.04,6.39,0,2.63-2.1,4.7-4.75,4.71-4.93,.02-9.95,.02-14.8,0h-10.16c-.08,0-.17,0-.26,0Zm-4.26-1.02h3.99c.16,0,.33,.01,.49,0h10.5c4.75,0,9.66,.01,14.49-.01,2.13-.01,3.74-1.6,3.75-3.7,0-2.13,.03-4.26,.04-6.4,.05-6.07,.11-12.35-.12-18.5h0c-.23-6.26-3.46-10.82-9.35-13.18-4.04-1.62-8.18-3.21-12.18-4.75-1.8-.69-3.6-1.38-5.4-2.08-2.84-1.1-2.98-1.3-3.04-4.3v-.11c-.02-.97,.3-1.67,1.09-2.32,2.72-2.28,4.49-5.2,5.26-8.69,.19-.86,.52-1.36,1.63-1.43,2.96-.18,5.03-1.63,6.14-4.3,1.11-2.66,.67-5.14-1.32-7.37-.53-.6-.76-1.19-.79-2.06-.03-.85-.04-1.7-.05-2.55-.02-2.15-.04-4.37-.42-6.47-1.74-9.73-10.68-17.08-20.78-17.11h-.06c-10.15,0-19.11,7.32-20.87,17.05-.35,1.93-.38,3.97-.41,5.94-.02,1.08-.04,2.2-.11,3.3-.04,.67-.33,1.39-.75,1.83-1.65,1.8-2.26,4.27-1.63,6.61,.63,2.31,2.38,4.11,4.68,4.82,.56,.17,1.16,.26,1.79,.35,.31,.04,.63,.09,.95,.14l.32,.06,.13,.49c.05,.17,.1,.37,.14,.57,.7,3.41,2.17,6.08,4.35,7.93,1.64,1.39,2.26,2.91,2.06,5.07-.08,.87-.33,1.49-1.29,1.86-5.37,2.07-10.73,4.16-16.1,6.26l-2.74,1.07c-6.39,2.5-9.92,7.64-9.93,14.49,0,6.08,0,12.15,0,18.23v4.83c0,3.04,1.42,4.45,4.47,4.45h41.03Zm26.02-2.1c-1.31,0-2.61,0-3.92,0-.19,0-.39-.02-.6-.04l-.76-.07v-5.78c0-6.93,0-13.86,0-20.79,0-.38-.01-.81-.13-1.17-.1-.31-.33-.71-1.09-.62-.51,.06-.78,.33-.85,.85-.04,.25-.03,.52-.03,.8v26.83h-2.26c-1.12,0-2.2,0-3.27,0h-8.61c-.21-.01-.4,0-.58,0h-25.28v-.08h-9.53v-26.76c0-.29,0-.56-.03-.8-.08-.51-.35-.78-.86-.84-.76-.09-.98,.32-1.09,.63-.11,.35-.12,.77-.12,1.17,0,6.89,0,13.78,0,20.68v6.01h-6.11c-.81,0-1.62,0-2.42,0-1.17,0-1.84-.68-1.85-1.85,0-.94,0-1.88,0-2.83v-7.01c0-4.54,0-9.08,0-13.63,0-5.98,3.06-10.46,8.62-12.62l1.51-.59c3.15-1.22,6.4-2.49,9.58-3.76,.15-.06,.29-.1,.43-.13l4.77-1.87c1.02-.41,1.99-.79,2.98-1.14l.12-.03,2.15-.83v-4.85l.78,.48c.05,.03,5.42,3.29,12.76-.04l.72-.33v4.61l11.23,4.49c3.43,1.36,7.01,2.75,10.64,4.14,4.06,1.55,6.7,4.56,7.85,8.95,.25,.94,.38,1.98,.38,3,.02,6.79,.02,13.58,.02,20.37v3.31c0,1.6-.57,2.16-2.17,2.17-.98,0-1.96,0-2.94,0Zm-4.27-1.04c.12,.01,.24,.02,.35,.02,2.28,0,4.57,0,6.85,0,1.03,0,1.15-.12,1.15-1.15v-3.31c0-6.79,0-13.58-.02-20.37,0-.94-.12-1.89-.35-2.74-1.08-4.11-3.44-6.81-7.23-8.26-3.63-1.39-7.22-2.78-10.65-4.14l-11.87-4.74v-3.74c-5.92,2.41-10.47,.88-12.23,.07v3.8l-3,1.14c-.95,.34-1.89,.71-2.89,1.11l-.33,.13h0l-.77,.32-3.83,1.47c-.08,.01-.17,.04-.27,.08-3.19,1.27-6.45,2.54-9.59,3.76l-1.51,.59c-5.21,2.03-7.97,6.07-7.97,11.68,0,4.54,0,9.08,0,13.62v7.02c0,.94,0,1.88,0,2.82,0,.61,.23,.84,.84,.84,.81,0,1.61,0,2.42,0h5.1v-4.99c0-6.89,0-13.78,0-20.68,0-.46,.01-.99,.17-1.48,.31-.95,1.12-1.45,2.17-1.32,.96,.11,1.59,.73,1.74,1.69,.05,.33,.05,.66,.04,.97v25.73h9.36v.08h24.41c.21,0,.42-.01,.63,0h8.58c1.07,0,2.16,0,3.28,0h1.25v-25.81c0-.31,0-.64,.04-.97,.14-.97,.78-1.59,1.73-1.7,1.05-.13,1.86,.36,2.18,1.31,.16,.5,.18,1.03,.18,1.49,0,6.93,0,13.86,0,20.8v4.86Zm-27.72-50.5s-.07,0-.11,0c-7.27-.06-13.22-5.26-13.85-12.08h0c-.19-2.1-.19-3.66-.18-5.65v-.97c-.02-.12,0-.27,0-.47v-.32c0-.62,0-1.23,0-1.85,0-1.36,0-2.72,0-4.08,.03-2.33,1.07-4.3,2.84-5.42,1.74-1.1,3.92-1.18,5.97-.23,3.46,1.6,6.85,1.59,10.36-.03,1.97-.91,4.19-.82,5.93,.24,1.66,1.02,2.66,2.76,2.73,4.78,.22,5.72,.18,10.08-.14,14.16-.51,6.48-6.71,11.91-13.57,11.91Zm-12.95-12.18c.58,6.31,6.1,11.1,12.85,11.16,.03,0,.07,0,.1,0,6.35,0,12.09-5,12.56-10.98,.32-4.04,.36-8.36,.14-14.04-.07-1.68-.89-3.12-2.25-3.95-1.45-.89-3.31-.96-4.97-.19-3.79,1.75-7.46,1.76-11.21,.03-1.74-.8-3.56-.74-5.01,.17-1.48,.93-2.34,2.6-2.37,4.58-.02,1.35-.01,2.71,0,4.06,0,.59,0,1.18,0,1.77,.02,.12,0,.27,0,.47v1.37c-.01,1.96-.01,3.5,.17,5.55h0Zm-4.11-1.75c-1.86,0-3.29-.77-4.24-2.29-1.06-1.69-1.06-3.47,0-5.14,1.03-1.63,2.55-2.4,4.53-2.26l.47,.03v9.64l-.49,.02c-.09,0-.18,0-.28,0Zm-.25-8.7c-1.36,.03-2.39,.63-3.13,1.8-.84,1.34-.84,2.71,0,4.06,.72,1.15,1.75,1.75,3.13,1.81v-7.68Zm34.01,8.68c-.07,0-.15,0-.22,0l-.49-.02v-9.55l.46-.05c1.34-.13,2.63,.27,3.63,1.15,1.01,.89,1.59,2.12,1.63,3.48h0c.04,1.35-.45,2.61-1.39,3.54-.94,.94-2.22,1.45-3.62,1.45Zm.31-8.63v7.61c1.01-.07,1.92-.46,2.6-1.14,.74-.74,1.13-1.73,1.1-2.79h0c-.03-1.07-.49-2.05-1.29-2.75-.68-.59-1.52-.91-2.41-.92Zm-36.21-3.07l-.06-.47c-.89-6.74,.85-12.88,4.9-17.28,3.83-4.16,9.54-6.47,15.27-6.18,9.78,.49,17.92,8.8,18.14,18.54,.03,1.09,.02,2.15,.01,3.28,0,.52,0,1.04,0,1.57v.54l-3.05-.18-.17-.88c-.06-.32-.12-.63-.19-.93-.58-2.31-2.12-4.24-4.24-5.31-2.15-1.09-4.68-1.17-6.93-.24-.2,.08-.4,.17-.6,.26-.6,.26-1.21,.52-1.85,.71-2.51,.75-4.78-.03-6.48-.8-3.22-1.45-6.23-1.03-8.97,1.23-1.45,1.2-2.35,2.8-2.67,4.73h0c-.03,.2-.08,.39-.12,.59l-.14,.63-2.84,.19Zm19.16-22.95c-5.12,0-10.14,2.16-13.57,5.88-3.75,4.08-5.42,9.74-4.7,15.99l1.14-.08c.03-.14,.06-.28,.09-.42h0c.36-2.18,1.37-3.98,3.02-5.35,3.06-2.54,6.43-3,10.03-1.38,2.32,1.04,4.05,1.27,5.78,.75,.58-.17,1.15-.42,1.74-.67,.21-.09,.41-.18,.62-.26,2.53-1.05,5.36-.95,7.78,.27,2.38,1.2,4.12,3.38,4.76,5.97,.08,.32,.14,.65,.21,.99l.02,.1,1.19,.07c0-.35,0-.7,0-1.04,0-1.12,.01-2.18-.01-3.25-.21-9.21-7.92-17.09-17.18-17.55-.3-.02-.6-.02-.91-.02Z"/></g><g id="rcbXR7"><path class="cls-3" d="M64.99,5c8.41,0,15.6,6.07,17.05,14.39,.58,3.32,.07,6.51-1.07,9.63-1.5,4.11-3.76,7.8-6.32,11.32-2.69,3.7-5.68,7.14-8.92,10.37-.6,.59-.88,.6-1.47,0-4.56-4.56-8.67-9.47-12-15.01-1.84-3.06-3.36-6.26-4.15-9.77-1.82-8.07,2.61-16.54,10.3-19.63,2.22-.89,4.32-1.31,6.57-1.31Zm.03,9.38c-4.42,.01-7.94,3.55-7.94,7.97,0,4.35,3.59,7.9,7.97,7.89,4.32-.01,7.88-3.58,7.88-7.9,0-4.39-3.55-7.97-7.91-7.96Z"/></g></g></g></g></svg>