<?xml version="1.0" encoding="UTF-8"?><svg id="Capa_2" xmlns="http://www.w3.org/2000/svg" viewBox="0 0 130 130"><defs><style>.cls-1{fill:none;}.cls-2{fill:#01356a;}.cls-3{fill:#fff;}.cls-4{fill:#d29945;}</style></defs><g id="Capa_1-2"><g><rect class="cls-3" width="130" height="130"/><g><path class="cls-1" d="M46.57,96.84c1.83,0,3.32-1.49,3.32-3.32s-1.49-3.32-3.32-3.32-3.32,1.49-3.32,3.32,1.49,3.32,3.32,3.32Z"/><path class="cls-1" d="M86.84,39.71c-.76-.66-1.7-1.02-2.69-1.03v8.5c1.13-.08,2.14-.52,2.91-1.28,.83-.82,1.26-1.93,1.22-3.12-.04-1.2-.55-2.29-1.44-3.07Z"/><path class="cls-1" d="M42.3,40.64c-.94,1.5-.94,3.03,0,4.54,.8,1.29,1.95,1.95,3.49,2.02v-8.58c-1.52,.04-2.67,.7-3.5,2.02Z"/><path class="cls-1" d="M58.15,66.3v3.9l.19,.4c2.68,1.06,7.33,2.03,13.33-.15l.15-.31v-3.93c-6.62,2.7-11.7,.99-13.66,.08Z"/><path class="cls-1" d="M96.52,120.37c2.55,0,5.1,0,7.66,0,1.16,0,1.29-.14,1.29-1.29v-3.84c0-7.54,.01-15.08-.02-22.62,0-1.05-.14-2.11-.39-3.07-1.2-4.59-3.85-7.61-8.08-9.23-3.97-1.52-7.86-3.03-11.59-4.51,.47,3.19,.77,8.26-.78,13.27,1.69,.95,2.88,2.31,3.52,4.09,1.87,5.17-1.62,12.02-1.77,12.3-.26,.5-.84,.74-1.37,.58l-3.27-.98c-.32-.1-.57-.31-.71-.61-.14-.3-.15-.63-.03-.94,.17-.43,.64-.7,1.15-.7,.13,0,.27,.02,.4,.06l1.52,.46c.37,.1,.8-.11,.94-.47,.66-1.66,2.07-5.84,.96-8.9-.53-1.46-1.57-2.5-3.2-3.2-.04-.02-.09-.03-.13-.04-1.7-.31-3.14-.01-4.39,.91-2.61,1.93-3.75,6.2-4.12,7.97-.07,.38,.18,.78,.55,.89l1.63,.49c.32,.1,.57,.31,.71,.61,.14,.3,.15,.63,.03,.94-.22,.55-.91,.83-1.55,.64l-3.14-.95c-.54-.16-.88-.68-.83-1.24,.03-.32,.91-7.97,5.32-11.24,1.64-1.21,3.53-1.69,5.65-1.42,1.29-4.26,1.13-8.64,.75-11.59l-1.99,2.34c-.33,.38-.83,.55-1.32,.44l-5.78-1.33c-.1-.02-.17,.03-.2,.06s-.08,.1-.05,.21l.64,2.01c.18,.56-.03,1.17-.51,1.51l-7.46,5.18h0l-1.6,1.11-1.49-1.03s-.04-.01-.05-.03l-7.49-5.19c-.49-.34-.69-.94-.51-1.51l.64-2.02c.03-.1-.02-.17-.05-.21s-.1-.09-.2-.06l-5.79,1.34c-.49,.11-1-.05-1.33-.44l-2.35-2.77c-.27-.32-.37-.75-.28-1.15-.08,.02-.17,.04-.28,.08-.32,.13-.64,.26-.96,.38-.45,2.84-.85,7.68,.51,12.4,.41-.09,.83-.15,1.26-.15,3.08,0,5.59,2.51,5.59,5.59s-2.51,5.59-5.59,5.59-5.59-2.51-5.59-5.59c0-1.83,.89-3.45,2.25-4.47-1.4-4.59-1.26-9.22-.87-12.4-2.43,.96-4.86,1.9-7.24,2.83l-1.76,.68c-5.82,2.27-8.9,6.78-8.91,13.05,0,5.16,0,10.32,0,15.48v7.57c0,1.06,0,2.11,0,3.17,0,.69,.26,.94,.94,.94,.9,0,1.81,0,2.71,0h5.7v-6.24c0-7.48,0-14.96,0-22.45,0-.51,.01-1.11,.19-1.66,.35-1.06,1.25-1.62,2.42-1.48,1.07,.13,1.78,.81,1.95,1.89,.06,.37,.05,.74,.05,1.09v28.75h10.46l.02,.09h27.26c.24,0,.47-.01,.71,0h9.58c1.2,0,2.41,0,3.66,0h1.39v-28.84c0-.35-.01-.71,.04-1.08,.16-1.08,.87-1.77,1.94-1.9,1.18-.14,2.08,.4,2.43,1.46,.18,.55,.2,1.15,.2,1.66,0,7.71,0,15.41,0,23.11v5.56c.14,.01,.27,.03,.4,.03Zm-31.57-1.87c-1.23,0-2.23-1-2.23-2.23s1-2.23,2.23-2.23,2.23,1,2.23,2.23-1,2.23-2.23,2.23Zm0-11.56c-1.23,0-2.23-1-2.23-2.23s1-2.23,2.23-2.23,2.23,1,2.23,2.23-1,2.23-2.23,2.23Zm0-11.56c-1.23,0-2.23-1-2.23-2.23s1-2.23,2.23-2.23,2.23,1,2.23,2.23-1,2.23-2.23,2.23Z"/><path class="cls-1" d="M49.41,27.52c3.42-2.83,7.19-3.35,11.21-1.54,2.59,1.17,4.52,1.42,6.45,.84,.66-.2,1.29-.47,1.95-.75,.23-.1,.45-.2,.68-.29,2.82-1.17,5.99-1.06,8.69,.3,2.66,1.34,4.6,3.77,5.32,6.67,.09,.37,.16,.74,.23,1.12l.02,.09,1.33,.08c0-.4,0-.79,0-1.18,0-1.25,.01-2.43-.01-3.62-.24-10.3-8.85-19.09-19.2-19.61-.34-.02-.68-.03-1.01-.03-5.73,0-11.33,2.41-15.16,6.57-4.2,4.56-6.05,10.88-5.26,17.87l1.27-.08c.04-.16,.07-.31,.1-.47,.4-2.44,1.54-4.45,3.37-5.98Z"/><path class="cls-1" d="M65.03,62.77s.08,0,.11,0c7.1,0,13.51-5.59,14.03-12.27,.36-4.51,.4-9.35,.16-15.69-.07-1.87-.99-3.49-2.52-4.42-1.62-.99-3.7-1.07-5.56-.21-4.24,1.96-8.34,1.97-12.53,.03-1.94-.9-3.98-.83-5.6,.19-1.65,1.04-2.62,2.9-2.65,5.11-.02,1.51-.02,3.02-.01,4.53,0,.66,0,1.32,0,1.98,.02,.13,.01,.3,0,.52v1.52c-.01,2.19-.02,3.92,.19,6.22,.65,7.05,6.82,12.41,14.36,12.47Z"/><path class="cls-1" d="M59.66,73.41l5.31,11.26,5.39-11.43c-2.09,.56-4.02,.8-5.75,.8-1.88,0-3.53-.26-4.94-.63Z"/><path class="cls-2" d="M109.99,91.84c-.27-7.48-4.13-12.92-11.16-15.74-4.54-1.82-9.17-3.6-13.65-5.32-2-.77-4-1.54-6-2.31q-2.62-1.01-2.67-3.77v-.12c-.02-.74,.19-1.19,.81-1.7,3.24-2.71,5.34-6.19,6.26-10.34,.14-.62,.2-.68,.78-.71,3.73-.23,6.44-2.13,7.84-5.5,1.4-3.36,.82-6.62-1.67-9.42-.42-.47-.57-.88-.6-1.59-.03-.94-.04-1.88-.05-2.82-.02-2.45-.05-4.99-.49-7.43-2.04-11.4-12.5-20.02-24.33-20.05h-.07c-11.88,0-22.38,8.58-24.44,19.98-.4,2.24-.44,4.57-.48,6.82-.02,1.2-.04,2.44-.12,3.64-.03,.49-.25,1.04-.54,1.35-2.11,2.3-2.89,5.46-2.08,8.45,.8,2.96,3.04,5.27,5.99,6.17,.71,.22,1.42,.32,2.18,.42,.22,.03,.44,.06,.67,.1,.04,.13,.07,.28,.1,.42,.84,4.07,2.6,7.26,5.24,9.5,1.54,1.31,2.09,2.67,1.9,4.69-.07,.73-.19,.93-.72,1.13-5.9,2.27-11.79,4.57-17.68,6.87l-3.38,1.32c-7.5,2.93-11.81,9.21-11.81,17.24,0,6.64,0,13.27,0,19.91v5.86c0,4,2.12,6.11,6.13,6.11h50.29c.11,0,.22,0,.32,0s.2,0,.29,0h11.35c5.42,0,11.02,.01,16.54-.01,2.97-.02,5.3-2.33,5.31-5.27,0-2.38,.03-4.76,.05-7.14,.06-6.8,.12-13.82-.13-20.73ZM45.8,38.63v8.58c-1.54-.07-2.69-.74-3.49-2.02-.95-1.51-.95-3.04,0-4.54,.83-1.32,1.98-1.98,3.5-2.02Zm38.35,8.55v-8.5c.99,.01,1.93,.37,2.69,1.03,.89,.78,1.4,1.87,1.44,3.07,.04,1.19-.4,2.3-1.22,3.12-.76,.76-1.78,1.2-2.91,1.28Zm11.97,44.49c0-.51-.02-1.11-.2-1.66-.35-1.06-1.26-1.61-2.43-1.46-1.07,.13-1.78,.83-1.94,1.9-.05,.37-.05,.73-.04,1.08v28.84h-1.39c-1.25,0-2.46,0-3.66,0h-9.58c-.23-.01-.47,0-.71,0h-27.26l-.02-.09h-10.47v-28.75c0-.35,.01-.72-.05-1.09-.17-1.07-.88-1.76-1.95-1.89-1.17-.14-2.08,.41-2.42,1.48-.18,.55-.19,1.14-.19,1.66,0,7.48,0,14.96,0,22.45v6.24h-5.7c-.9,0-1.8,0-2.71,0-.68,0-.93-.26-.94-.94,0-1.06,0-2.11,0-3.17v-7.57c0-5.16,0-10.32,0-15.48,0-6.27,3.08-10.79,8.91-13.05l1.76-.68c2.38-.92,4.81-1.87,7.24-2.83-.39,3.18-.53,7.81,.87,12.4-1.36,1.02-2.25,2.64-2.25,4.47,0,3.08,2.51,5.59,5.59,5.59s5.59-2.51,5.59-5.59-2.51-5.59-5.59-5.59c-.43,0-.86,.05-1.26,.15-1.36-4.72-.96-9.56-.51-12.4,.32-.13,.64-.25,.96-.38,.1-.04,.19-.07,.28-.08-.09,.41,.01,.84,.28,1.15l2.35,2.77c.33,.38,.83,.55,1.33,.44l5.79-1.34c.1-.03,.17,.03,.2,.06s.08,.11,.05,.21l-.64,2.02c-.18,.57,.03,1.17,.51,1.51l7.49,5.19s.04,.02,.05,.03l1.49,1.03,1.6-1.11h0l7.46-5.18c.49-.34,.69-.94,.51-1.51l-.64-2.01c-.03-.1,.01-.17,.05-.21s.1-.09,.2-.06l5.78,1.33c.49,.11,1-.05,1.32-.44l1.99-2.34c.38,2.96,.54,7.33-.75,11.59-2.11-.26-4.01,.21-5.65,1.42-4.41,3.27-5.28,10.91-5.32,11.24-.06,.55,.29,1.07,.83,1.24l3.14,.95c.64,.19,1.33-.1,1.55-.64,.12-.31,.11-.65-.03-.94-.14-.3-.4-.51-.71-.61l-1.63-.49c-.37-.11-.62-.52-.55-.89,.37-1.77,1.51-6.03,4.12-7.97,1.25-.92,2.69-1.22,4.39-.91,.04,0,.09,.02,.13,.04,1.63,.7,2.67,1.74,3.2,3.2,1.11,3.06-.3,7.24-.96,8.9-.14,.36-.57,.57-.94,.47l-1.52-.46c-.13-.04-.27-.06-.4-.06-.5,0-.97,.27-1.15,.7-.12,.31-.11,.65,.03,.94,.14,.3,.4,.52,.71,.61l3.27,.98c.53,.16,1.11-.08,1.37-.58,.15-.29,3.65-7.13,1.77-12.3-.64-1.78-1.83-3.15-3.52-4.09,1.54-5.02,1.24-10.09,.78-13.27,3.72,1.48,7.62,2.99,11.59,4.51,4.23,1.62,6.88,4.63,8.08,9.23,.25,.96,.39,2.02,.39,3.07,.03,7.54,.02,15.08,.02,22.62v3.84c0,1.15-.13,1.29-1.29,1.29-2.55,0-5.1,0-7.66,0-.13,0-.26-.01-.4-.03v-5.56c0-7.7,0-15.41,0-23.11Zm-49.55-1.47c1.83,0,3.32,1.49,3.32,3.32s-1.49,3.32-3.32,3.32-3.32-1.49-3.32-3.32,1.49-3.32,3.32-3.32Zm25.24-20.05l-.15,.31c-5.99,2.18-10.64,1.22-13.33,.15l-.19-.4v-3.9c1.96,.91,7.04,2.62,13.66-.08v3.93Zm-6.84,14.52l-5.31-11.26c1.4,.37,3.06,.63,4.94,.63,1.74,0,3.67-.23,5.75-.8l-5.39,11.43Zm-18.93-51.18c-.03,.16-.06,.31-.1,.47l-1.27,.08c-.8-6.98,1.06-13.31,5.26-17.87,3.83-4.16,9.44-6.57,15.16-6.57,.34,0,.67,0,1.01,.03,10.35,.52,18.96,9.31,19.2,19.61,.03,1.19,.02,2.37,.01,3.62,0,.39,0,.78,0,1.18l-1.33-.08-.02-.09c-.07-.39-.14-.76-.23-1.12-.72-2.9-2.66-5.33-5.32-6.67-2.7-1.36-5.87-1.47-8.69-.3-.23,.09-.46,.19-.68,.29-.67,.29-1.3,.56-1.95,.75-1.93,.58-3.86,.32-6.45-.84-4.02-1.81-7.79-1.29-11.21,1.54-1.84,1.52-2.97,3.54-3.37,5.98Zm4.44,10.58v-1.52c.02-.22,.04-.39,.01-.52,0-.66,0-1.32,0-1.98,0-1.51-.01-3.02,.01-4.53,.03-2.21,1-4.07,2.65-5.11,1.61-1.02,3.65-1.08,5.6-.19,4.19,1.93,8.29,1.92,12.53-.03,1.86-.86,3.94-.78,5.56,.21,1.53,.93,2.44,2.55,2.52,4.42,.25,6.34,.2,11.18-.16,15.69-.53,6.67-6.94,12.27-14.03,12.27-.04,0-.08,0-.11,0-7.54-.06-13.71-5.43-14.36-12.47-.21-2.29-.21-4.03-.2-6.22Z"/><circle class="cls-4" cx="64.95" cy="93.15" r="2.23"/><path class="cls-4" d="M64.95,102.49c-1.23,0-2.23,1-2.23,2.23s1,2.23,2.23,2.23,2.23-1,2.23-2.23-1-2.23-2.23-2.23Z"/><path class="cls-4" d="M64.95,114.05c-1.23,0-2.23,1-2.23,2.23s1,2.23,2.23,2.23,2.23-1,2.23-2.23-1-2.23-2.23-2.23Z"/></g></g></g></svg>