<svg id="Grupo_2" data-name="Grupo 2" xmlns="http://www.w3.org/2000/svg" xmlns:xlink="http://www.w3.org/1999/xlink" width="116.909" height="37.838" viewBox="0 0 116.909 37.838">
  <defs>
    <clipPath id="clip-path">
      <rect id="Rectángulo_8" data-name="Rectángulo 8" width="116.909" height="37.838" fill="none"/>
    </clipPath>
  </defs>
  <g id="Grupo_1" data-name="Grupo 1" clip-path="url(#clip-path)">
    <path id="Trazado_1" data-name="Trazado 1" d="M26.255,19.341a.393.393,0,0,0-.563-.232l-2.135,1.179a.489.489,0,0,0-.232.572,11.151,11.151,0,0,1,.321,4.065,10.472,10.472,0,0,1-9.533,9.515A10.436,10.436,0,0,1,3.232,23.772a11.039,11.039,0,0,1,1.5-5.575l.02-.608L3.493,15.2a.389.389,0,0,0-.661-.052A14.455,14.455,0,0,0,.018,24.524a13.815,13.815,0,0,0,12.927,13.3c7.683.312,14-6.1,14-14.053a14.505,14.505,0,0,0-.688-4.431M7.629,24.658v2.376l11.784-6.468a2.645,2.645,0,0,0,1.349-2.332V15.858L8.978,22.326a2.645,2.645,0,0,0-1.349,2.332M20.762,7.933,8.978,14.393a2.659,2.659,0,0,0-1.349,2.341V19.11l11.784-6.468a2.656,2.656,0,0,0,1.349-2.332Zm-.039-5.548V0L8.939,6.468A2.656,2.656,0,0,0,7.59,8.8v2.386L19.374,4.717a2.655,2.655,0,0,0,1.349-2.332" transform="translate(0)" fill="#fff"/>
    <path id="Trazado_2" data-name="Trazado 2" d="M157.2,62.024h3.243V49.409H157.2ZM149.015,49.15a5.907,5.907,0,0,0-4.289,1.975,5.168,5.168,0,0,0-4.056-1.975,4.685,4.685,0,0,0-3.261,1.278V49.41h-3.118V62.024h3.243V53.832a3.7,3.7,0,0,1,2.814-1.564,2.371,2.371,0,0,1,1.814.786,3.019,3.019,0,0,1,.6,2.153v6.817H146V55.342a11,11,0,0,0-.1-1.412,3.765,3.765,0,0,1,2.912-1.662,2.39,2.39,0,0,1,1.823.786,3.065,3.065,0,0,1,.6,2.153v6.817h3.234V55.342a6.423,6.423,0,0,0-1.224-4.163,5.392,5.392,0,0,0-4.226-2.028M128.073,62.024h3.234v-18.2l-3.234.876Zm-6.1-11.6a5.4,5.4,0,0,0-3.538-1.278c-3.279,0-5.923,2.859-5.923,6.576a6.95,6.95,0,0,0,1.546,4.422,5.979,5.979,0,0,0,4.557,2.135,4.917,4.917,0,0,0,3.359-1.278v1.019h3.109V49.41h-3.109Zm-.125,7.174a3.492,3.492,0,0,1-2.912,1.555,3.458,3.458,0,0,1-.072-6.888,3.656,3.656,0,0,1,2.984,1.564Zm36.969-14.509a2.158,2.158,0,1,0,2.118,2.162,2.113,2.113,0,0,0-2.118-2.162m28.267,18.931h3.234v-18.2l-3.234.876Zm-6.1-11.6a5.413,5.413,0,0,0-3.538-1.278c-3.288,0-5.923,2.859-5.923,6.576a7,7,0,0,0,1.537,4.422,6,6,0,0,0,4.565,2.135,4.934,4.934,0,0,0,3.359-1.278v1.019h3.109V49.41h-3.109Zm-.125,7.174a3.515,3.515,0,0,1-2.913,1.555,3.458,3.458,0,0,1-.071-6.888,3.655,3.655,0,0,1,2.984,1.564Zm-14.321-6.915V49.41h-3.109V62.024h3.234V54.091a3.583,3.583,0,0,1,2.939-1.823,4.129,4.129,0,0,1,1.171.134l.375-3.145a6.336,6.336,0,0,0-1.1-.107,4.436,4.436,0,0,0-3.511,1.536M193.3,44.7V62.025h3.234v-18.2Z" transform="translate(-79.626 -30.498)" fill="#fff"/>
  </g>
</svg>
