<svg xmlns="http://www.w3.org/2000/svg" xmlns:xlink="http://www.w3.org/1999/xlink" width="103" height="42.158" viewBox="0 0 103 42.158">
  <defs>
    <clipPath id="clip-path">
      <rect id="Rectángulo_107" data-name="Rectángulo 107" width="103" height="42.158" transform="translate(0 0)" fill="none"/>
    </clipPath>
  </defs>
  <g id="Grupo_51" data-name="Grupo 51" transform="translate(0 0)">
    <g id="Grupo_50" data-name="Grupo 50" clip-path="url(#clip-path)">
      <path id="Trazado_62" data-name="Trazado 62" d="M24.858,33.8s-2.013-5.7-3.879-10.835c-1.958,0-4.863-.046-7.147-.046-2.759,0-5.7.046-7.1.091C4.717,28.1,2.476,33.8,2.476,33.8A22.679,22.679,0,0,0,0,33.8S4.344,23.291,7.1,16.562C9.715,10.161,13.785.118,13.785.118a34.169,34.169,0,0,0,3.733,0s3.734,10.134,6.165,16.536C26.2,23.337,30.221,33.8,30.221,33.8a52.708,52.708,0,0,0-5.363,0M19.722,19.458c-2.149-5.837-5.609-15.042-5.609-15.042S10.425,13.667,8.04,19.595A14.53,14.53,0,0,0,7.53,21c1.539,0,3.925.045,6.31.045,1.958,0,4.489-.045,6.447-.045-.192-.51-.383-1.029-.565-1.539" fill="#fff"/>
      <path id="Trazado_63" data-name="Trazado 63" d="M41.639,25.2c-1.393,3.369-3.487,8.6-3.487,8.6a16.758,16.758,0,0,0-2.869,0s-2.167-6.2-3.1-8.751c-1.548-4.225-3.406-9.142-3.406-9.142a34.911,34.911,0,0,0,4.143,0s1.43,4.262,2.4,7.012c.965,2.713,2.713,7.32,2.713,7.32s1.94-4.534,2.941-7.011c1.084-2.713,2.869-7.321,2.869-7.321a14.32,14.32,0,0,0,1.784,0c-.009,0-2.6,5.964-4,9.3" fill="#fff"/>
      <path id="Trazado_64" data-name="Trazado 64" d="M50.043,24.276c.082,2.713,1.357,7.976,6.893,7.976a7.713,7.713,0,0,0,5.655-2.513l.546.738a10.515,10.515,0,0,1-8.286,3.715c-4.8,0-9.105-3.643-9.105-9.725a9.3,9.3,0,0,1,9.105-9.37c4.453,0,9.215,2.941,8.987,9.179Zm4.8-8.177c-2.249,0-4.762,2.2-4.762,6.975h9.643c0-4.38-2.013-6.975-4.881-6.975" fill="#fff"/>
      <path id="Trazado_65" data-name="Trazado 65" d="M78.7,33.8c.082-2.477.082-4.179.036-6.51V21.872c0-1.666-.892-4.3-3.451-4.3-2.358,0-4.607,2.286-5.035,3.023-.036,1.512,0,3.333,0,5.072,0,2.823.073,5.882.118,8.131a26.531,26.531,0,0,0-3.988,0s.155-4.143.155-8.477c0-3.488-.036-7.321-.155-9.415,1.393.036,2.359.036,3.952,0a23.263,23.263,0,0,1-.118,2.941c1.784-1.785,3.87-3.606,6.82-3.606A5.426,5.426,0,0,1,82.1,18.457a9.781,9.781,0,0,1,.465,3.952c-.037,1.047-.037,2.632-.037,4.489,0,2.049.037,4.416.119,6.893A33.478,33.478,0,0,0,78.7,33.8" fill="#fff"/>
      <path id="Trazado_66" data-name="Trazado 66" d="M89.2,24.276c.082,2.713,1.357,7.976,6.893,7.976a7.713,7.713,0,0,0,5.655-2.513l.546.738A10.515,10.515,0,0,1,94,34.192c-4.8,0-9.1-3.643-9.1-9.725A9.3,9.3,0,0,1,94,15.1c4.453,0,9.215,2.941,8.987,9.179ZM94,16.1c-2.249,0-4.762,2.2-4.762,6.975h9.643c0-4.38-2.013-6.975-4.881-6.975" fill="#fff"/>
      <path id="Trazado_67" data-name="Trazado 67" d="M28.6.319h3.05V.9H29.256V2.559h2.321v.583H29.256V5.336H31.65v.583H28.6Z" fill="#fff"/>
      <path id="Trazado_68" data-name="Trazado 68" d="M35.548,4.325l-.71,1.584h-.719L36.832.054l2.65,5.855h-.729l-.692-1.584ZM36.823,1.5l-1.011,2.24h1.994Z" fill="#fff"/>
      <path id="Trazado_69" data-name="Trazado 69" d="M42.668,3.651A1.979,1.979,0,0,0,42.923,4.9a1.578,1.578,0,0,0,2.34.037,1.863,1.863,0,0,0,.291-1.284V.318h.656v3.5a1.875,1.875,0,0,1-.519,1.548A2.213,2.213,0,0,1,44.107,6a2.257,2.257,0,0,1-1.521-.573,1.906,1.906,0,0,1-.574-1.621V.318h.656Z" fill="#fff"/>
      <path id="Trazado_70" data-name="Trazado 70" d="M55.152,5.91H54.5V.9h-1.42V.319h3.515V.9H55.152Z" fill="#fff"/>
      <path id="Trazado_71" data-name="Trazado 71" d="M62.864,2.586V.319h.656V5.91h-.656V3.169H59.85V5.91h-.656V.319h.656V2.586Z" fill="#fff"/>
      <path id="Trazado_72" data-name="Trazado 72" d="M66.643.319h3.05V.9H67.3V2.559H69.62v.583H67.3V5.336h2.394v.583h-3.05Z" fill="#fff"/>
      <path id="Trazado_73" data-name="Trazado 73" d="M73.372,5.91h-.656V.319h.847c1.12,0,2.158.282,2.158,1.539A1.493,1.493,0,0,1,74.246,3.4l1.876,2.5h-.811L73.536,3.442h-.164Zm0-3h.2c.738,0,1.494-.137,1.494-1,0-.919-.711-1.01-1.5-1.01h-.191Z" fill="#fff"/>
      <path id="Trazado_74" data-name="Trazado 74" d="M79.618,0l2.14,4.7L83.9,0,85.09,5.909h-.673l-.756-3.778h-.018L81.749,6.146,79.864,2.131h-.018L79.09,5.909h-.674Z" fill="#fff"/>
      <path id="Trazado_75" data-name="Trazado 75" d="M88.633,4.325l-.71,1.584H87.2L89.917.054l2.65,5.855h-.729l-.692-1.584ZM89.908,1.5,88.9,3.742h1.994Z" fill="#fff"/>
      <path id="Trazado_76" data-name="Trazado 76" d="M95.762,5.336h1.621v.583H95.106V.319h.656Z" fill="#fff"/>
      <path id="Trazado_77" data-name="Trazado 77" d="M99.942.319h3.05V.9H100.6V2.559h2.321v.583H100.6V5.336h2.394v.583h-3.05Z" fill="#fff"/>
      <path id="Trazado_78" data-name="Trazado 78" d="M.856,41.312H2.049v.674H.009v-3.97H.847v3.3Z" fill="#fff"/>
      <path id="Trazado_79" data-name="Trazado 79" d="M3.934,41.148l-.356.838H2.695L4.38,37.915h.655l1.639,4.071h-.9l-.328-.838Zm.728-2.067H4.653L4.179,40.52H5.2Z" fill="#fff"/>
      <path id="Trazado_80" data-name="Trazado 80" d="M7.667,38.024H8.714c.8,0,1.293.292,1.293,1.075a.879.879,0,0,1-.373.765.937.937,0,0,1,.738.992c0,.783-.592,1.129-1.375,1.129H7.667Zm.838,1.648h.1c.41,0,.61-.109.61-.519s-.254-.51-.61-.51H8.495v1.029Zm0,1.694h.172c.455,0,.839-.055.839-.565s-.457-.537-.884-.537H8.495v1.1Z" fill="#fff"/>
      <path id="Trazado_81" data-name="Trazado 81" d="M13.494,42.1a2.09,2.09,0,1,1,0-4.18,2.09,2.09,0,1,1,0,4.18m0-3.415a1.331,1.331,0,1,0,1.266,1.293,1.262,1.262,0,0,0-1.266-1.293" fill="#fff"/>
      <path id="Trazado_82" data-name="Trazado 82" d="M19.7,41.986h-1.02l-1.047-1.6h-.009v1.6H16.79v-3.97h1.138c.856,0,1.439.346,1.439,1.193a1.067,1.067,0,0,1-.883,1.1Zm-2.076-2.14h.109c.465,0,.792-.127.792-.61s-.336-.583-.783-.583h-.118Z" fill="#fff"/>
      <path id="Trazado_83" data-name="Trazado 83" d="M21.6,41.148l-.356.838H20.36l1.685-4.071H22.7l1.639,4.071h-.9l-.328-.838Zm.728-2.067h-.009l-.474,1.439h1.02Z" fill="#fff"/>
      <path id="Trazado_84" data-name="Trazado 84" d="M26.269,41.985h-.838V38.7h-.865v-.674h2.577V38.7h-.865v3.287Z" fill="#fff"/>
      <path id="Trazado_85" data-name="Trazado 85" d="M30.121,42.1A2.09,2.09,0,1,1,32.252,40a2.028,2.028,0,0,1-2.131,2.1m0-3.415a1.331,1.331,0,1,0,1.266,1.293,1.262,1.262,0,0,0-1.266-1.293" fill="#fff"/>
      <rect id="Rectángulo_105" data-name="Rectángulo 105" width="0.838" height="3.97" transform="translate(33.417 38.015)" fill="#fff"/>
      <path id="Trazado_86" data-name="Trazado 86" d="M38.525,41.986h-1.02l-1.047-1.6h-.009v1.6h-.838v-3.97h1.138c.856,0,1.439.346,1.439,1.193a1.067,1.067,0,0,1-.883,1.1Zm-2.076-2.14h.109c.465,0,.792-.127.792-.61s-.336-.583-.783-.583h-.118Z" fill="#fff"/>
      <path id="Trazado_87" data-name="Trazado 87" d="M40.383,38.7v.874h1.339v.674H40.383V41.32h1.393v.674H39.545v-3.97h2.231V38.7Z" fill="#fff"/>
      <path id="Trazado_88" data-name="Trazado 88" d="M45.472,38.025h1.2a1.983,1.983,0,1,1,0,3.961H45.481V38.025Zm.839,3.287h.136c1.039,0,1.438-.528,1.438-1.311,0-.865-.482-1.311-1.438-1.311h-.136Z" fill="#fff"/>
      <path id="Trazado_89" data-name="Trazado 89" d="M50.754,38.7v.874h1.339v.674H50.754V41.32h1.393v.674h-2.24v-3.97h2.231V38.7Z" fill="#fff"/>
      <path id="Trazado_90" data-name="Trazado 90" d="M56.363,41.986h-1.02l-1.047-1.6h-.009v1.6h-.838v-3.97h1.138c.856,0,1.439.346,1.439,1.193a1.067,1.067,0,0,1-.883,1.1Zm-2.076-2.14H54.4c.465,0,.792-.127.792-.61s-.336-.583-.783-.583h-.118Z" fill="#fff"/>
      <path id="Trazado_91" data-name="Trazado 91" d="M60.6,39.527h-.009l-.974,2.513h-.292l-.947-2.513h-.009l-.382,2.458h-.847l.728-4.07h.592l1.066,2.614,1.019-2.614h.61l.647,4.07h-.847Z" fill="#fff"/>
      <path id="Trazado_92" data-name="Trazado 92" d="M63.784,41.148l-.356.838h-.883l1.685-4.071h.655l1.639,4.071h-.9l-.328-.838Zm.728-2.067H64.5L64.02,40.52h1.02Z" fill="#fff"/>
      <path id="Trazado_93" data-name="Trazado 93" d="M68.455,41.985h-.838V38.7h-.865v-.674h2.577V38.7h-.865v3.287Z" fill="#fff"/>
      <path id="Trazado_94" data-name="Trazado 94" d="M72.307,42.1A2.09,2.09,0,1,1,74.438,40a2.028,2.028,0,0,1-2.131,2.1m0-3.415a1.331,1.331,0,1,0,1.266,1.293,1.262,1.262,0,0,0-1.266-1.293" fill="#fff"/>
      <path id="Trazado_95" data-name="Trazado 95" d="M76.432,41.312h1.193v.674H75.593v-3.97h.838Z" fill="#fff"/>
      <path id="Trazado_96" data-name="Trazado 96" d="M80.565,42.1A2.09,2.09,0,1,1,82.7,40a2.028,2.028,0,0,1-2.131,2.1m0-3.415a1.331,1.331,0,1,0,1.266,1.293,1.262,1.262,0,0,0-1.266-1.293" fill="#fff"/>
      <path id="Trazado_97" data-name="Trazado 97" d="M87.659,39.882v.1A1.914,1.914,0,0,1,85.7,42.1a2.012,2.012,0,0,1-2.049-2.076,2.048,2.048,0,0,1,2.1-2.1,1.893,1.893,0,0,1,1.7.947l-.747.364a1.1,1.1,0,0,0-.982-.628,1.31,1.31,0,0,0-1.212,1.421,1.292,1.292,0,0,0,1.22,1.393.978.978,0,0,0,.983-.9h-.91v-.628Z" fill="#fff"/>
      <rect id="Rectángulo_106" data-name="Rectángulo 106" width="0.838" height="3.97" transform="translate(88.824 38.015)" fill="#fff"/>
      <path id="Trazado_98" data-name="Trazado 98" d="M94.314,42.159l-.3-.328a2.037,2.037,0,0,1-1.065.264A2.09,2.09,0,1,1,95.079,40a2.2,2.2,0,0,1-.51,1.438l.592.638ZM93.941,40.8a1.29,1.29,0,0,0,.273-.819,1.323,1.323,0,0,0-1.265-1.33,1.307,1.307,0,0,0-1.266,1.393,1.241,1.241,0,0,0,1.266,1.3,1.06,1.06,0,0,0,.455-.127l-.71-.756.865-.064Z" fill="#fff"/>
      <path id="Trazado_99" data-name="Trazado 99" d="M96.209,38.025h.838v2.222c0,.491.045,1.174.765,1.174s.764-.692.764-1.174V38.025h.838V40.4a1.605,1.605,0,1,1-3.205,0Z" fill="#fff"/>
      <path id="Trazado_100" data-name="Trazado 100" d="M101.59,38.7v.874h1.339v.674H101.59V41.32h1.393v.674h-2.231v-3.97h2.231V38.7Z" fill="#fff"/>
      <path id="Trazado_101" data-name="Trazado 101" d="M58.475,14.4l-6.483-3.761a1.3,1.3,0,0,1-.683-1.211A1.422,1.422,0,0,1,52.72,8.022a1.619,1.619,0,0,1,1.275.619l5.2,5.236Z" fill="#fff"/>
    </g>
  </g>
</svg>
