<?xml version="1.0" encoding="utf-8"?>
<!-- Generator: Adobe Illustrator 24.2.0, SVG Export Plug-In . SVG Version: 6.00 Build 0)  -->
<svg version="1.1" xmlns="http://www.w3.org/2000/svg" xmlns:xlink="http://www.w3.org/1999/xlink" x="0px" y="0px"
	 viewBox="0 0 116.9 37.8" style="enable-background:new 0 0 116.9 37.8;" xml:space="preserve">
<style type="text/css">
	.st0{display:none;}
	.st1{display:inline;}
	.st2{clip-path:url(#SVGID_2_);}
	.st3{fill:#FFFFFF;}
</style>
<g id="Grupo_2" class="st0">
	<g class="st1">
		<defs>
			<rect id="SVGID_1_" y="0" width="116.9" height="37.8"/>
		</defs>
		<clipPath id="SVGID_2_">
			<use xlink:href="#SVGID_1_"  style="overflow:visible;"/>
		</clipPath>
		<g id="Grupo_1" class="st2">
			<path id="Trazado_1" d="M26.3,19.3c-0.1-0.2-0.3-0.3-0.5-0.3c0,0,0,0-0.1,0l-2.1,1.2c-0.2,0.1-0.3,0.4-0.2,0.6
				c0.4,1.3,0.5,2.7,0.3,4.1c-0.4,5.1-4.5,9.1-9.5,9.5c-5.8,0.2-10.6-4.2-10.9-10c0-0.2,0-0.5,0-0.7c0-2,0.5-3.9,1.5-5.6l0-0.6
				l-1.3-2.4C3.4,15,3.2,14.9,3,15c-0.1,0-0.1,0.1-0.1,0.1c-2,2.7-3,6-2.8,9.4c0.3,7.1,5.8,12.8,12.9,13.3c7.7,0.3,14-6.1,14-14.1
				C26.9,22.3,26.7,20.8,26.3,19.3 M7.6,24.7V27l11.8-6.5c0.8-0.5,1.4-1.4,1.3-2.3v-2.4L9,22.3C8.1,22.8,7.6,23.7,7.6,24.7
				 M20.8,7.9L9,14.4c-0.8,0.5-1.4,1.4-1.3,2.3v2.4l11.8-6.5c0.8-0.5,1.4-1.4,1.3-2.3L20.8,7.9z M20.7,2.4V0L8.9,6.5
				C8.1,6.9,7.6,7.8,7.6,8.8v2.4l11.8-6.5C20.2,4.2,20.7,3.3,20.7,2.4"/>
			<path id="Trazado_2" d="M77.6,31.5h3.2V18.9h-3.2V31.5z M69.4,18.7c-1.6,0-3.2,0.7-4.3,2c-1-1.2-2.5-2-4.1-2
				c-1.2,0-2.4,0.4-3.3,1.3v-1h-3.1v12.6h3.2v-8.2c0.7-0.9,1.7-1.5,2.8-1.6c0.7,0,1.4,0.3,1.8,0.8c0.5,0.6,0.7,1.4,0.6,2.2v6.8h3.2
				v-6.7c0-0.5,0-0.9-0.1-1.4c0.7-1,1.7-1.6,2.9-1.7c0.7,0,1.4,0.3,1.8,0.8c0.5,0.6,0.7,1.4,0.6,2.2v6.8h3.2v-6.7
				c0.1-1.5-0.3-3-1.2-4.2C72.6,19.4,71,18.6,69.4,18.7 M48.4,31.5h3.2V13.3l-3.2,0.9V31.5z M42.3,19.9c-1-0.8-2.2-1.3-3.5-1.3
				c-3.3,0-5.9,2.9-5.9,6.6c0,1.6,0.5,3.2,1.5,4.4c1.1,1.3,2.8,2.1,4.6,2.1c1.2,0,2.4-0.4,3.4-1.3v1h3.1V18.9h-3.1L42.3,19.9z
				 M42.2,27.1c-0.6,1-1.7,1.6-2.9,1.6c-1.9-0.2-3.3-1.8-3.2-3.7c0.1-1.7,1.4-3,3.1-3.2c1.2,0,2.3,0.6,3,1.6V27.1z M79.2,12.6
				c-1.2,0-2.2,0.9-2.2,2.1s0.9,2.2,2.1,2.2c1.2,0,2.2-0.9,2.2-2.1c0,0,0,0,0,0C81.3,13.6,80.4,12.6,79.2,12.6
				C79.2,12.6,79.2,12.6,79.2,12.6 M107.5,31.5h3.2V13.3l-3.2,0.9V31.5z M101.4,19.9c-1-0.8-2.2-1.3-3.5-1.3c-3.3,0-5.9,2.9-5.9,6.6
				c0,1.6,0.5,3.2,1.5,4.4c1.1,1.3,2.8,2.1,4.6,2.1c1.2,0,2.4-0.4,3.4-1.3v1h3.1V18.9h-3.1V19.9z M101.2,27.1
				c-0.7,1-1.7,1.6-2.9,1.6c-1.9-0.2-3.3-1.8-3.2-3.7c0.1-1.7,1.4-3,3.1-3.2c1.2,0,2.3,0.6,3,1.6V27.1z M86.9,20.2v-1.3h-3.1v12.6
				H87v-7.9c0.6-1.1,1.7-1.8,2.9-1.8c0.4,0,0.8,0,1.2,0.1l0.4-3.1c-0.4-0.1-0.7-0.1-1.1-0.1C89.1,18.6,87.8,19.2,86.9,20.2
				 M113.7,14.2v17.3h3.2V13.3L113.7,14.2z"/>
		</g>
	</g>
</g>
<g id="Capa_2">
	<g>
		<path class="st3" d="M99.1,27.6c-0.1,0-0.2,0.1-0.3,0.1c-0.1,0-0.2,0.1-0.3,0.1c-6,1.4-12,2.9-17.9,4.3
			c-5.8,1.4-11.7,2.8-17.5,4.2c-1.3,0.3-2.6,0.6-3.8,0.9c-0.3,0.1-0.6,0.1-0.9,0c-2.1-0.5-4.2-1-6.3-1.5c-4.4-1.1-8.8-2.1-13.2-3.2
			c-5.1-1.2-10.2-2.5-15.3-3.7c-1.5-0.4-3.1-0.7-4.6-1.1c-0.2,0-0.3-0.1-0.5-0.1c0,0,0,0,0-0.1c0.1,0,0.2,0,0.3,0
			C45.4,27.6,72.2,27.6,99.1,27.6C99,27.6,99.1,27.6,99.1,27.6z"/>
		<path class="st3" d="M14.5,0.6c0.5-0.1,7.6-0.1,10.5-0.1c0.1,0,0.2,0,0.3,0c0.1,0.4,0.1,1.5,0,2c-0.2,0.1-0.4,0.1-0.6,0.1
			c-1.7,0-3.5,0-5.2,0c-0.2,0-0.4,0-0.6,0c0,0.1,0,0.2,0,0.2c0,0.7,0,6.2,0,6.6c0.2,0.1,0.3,0.1,0.5,0.1c1.4,0,2.9,0,4.3,0
			c0.2,0,0.4,0,0.6,0c0,0.1,0.1,0.1,0.1,0.2c0,0.6,0,1.2,0,1.9c-0.1,0.1-0.3,0.1-0.5,0.1c-1.5,0-3,0-4.5,0c-0.2,0-0.3,0-0.6,0
			c-0.1,0.7,0,1.3,0,2c0,0.7,0,1.4,0,2c0,0.7,0,1.3,0,2c0,0.7,0,1.3,0,2c0.2,0.1,0.4,0.1,0.6,0.1c1.8,0,3.6,0,5.4,0
			c0.2,0,0.4,0,0.6,0c0.1,0.4,0.1,1.5,0,2c0,0,0,0,0,0c0,0,0,0,0,0c-3.5,0-7.1,0-10.6,0c-0.1,0-0.2,0-0.3,0c0-0.1,0-0.2-0.1-0.3
			c0-0.1,0-0.2,0-0.4c0-6.6,0-13.2,0-19.9C14.4,1,14.4,0.8,14.5,0.6z"/>
		<path class="st3" d="M93.6,21.8c-0.6,0.1-3.3,0.1-3.7,0c0-0.1,0-0.2,0-0.3c0-0.5,0-1,0-1.5c0-4.1,0-8.2,0-12.3c0-0.2,0-0.4,0-0.7
			c0.1,0,0.2-0.1,0.3-0.1c1.1,0,2.1,0,3.2,0c0.1,0,0.1,0,0.2,0c0.1,0.3,0,0.6,0,1c0,0.3,0,0.6,0,0.9c0.1,0.1,0.2,0,0.2-0.1
			c0.3-0.5,0.7-0.9,1.2-1.3c1.3-1,2.8-1.2,4.3-0.7c1.1,0.4,1.9,1.2,2.3,2.3c0.3,0.7,0.3,1.5,0.3,2.3c0,2.2,0,4.4,0,6.6
			c0,1.1,0,2.2,0,3.3c0,0.2,0,0.4,0,0.5c-0.1,0-0.2,0.1-0.2,0.1c-1.1,0-2.2,0-3.3,0c-0.1,0-0.1,0-0.2,0c-0.1-0.2-0.1-0.4-0.1-0.6
			c0-2.1,0-4.2,0-6.2c0-0.8,0-1.7,0-2.5c0-0.5-0.1-1.1-0.2-1.6c-0.1-0.2-0.2-0.4-0.3-0.6c-0.5-0.9-1.4-1.2-2.4-0.9
			c-0.3,0.1-0.6,0.3-0.9,0.6c-0.3,0.3-0.4,0.7-0.6,1.1c-0.2,0.7-0.3,1.5-0.3,2.3c0,2.6,0,5.2,0,7.8C93.6,21.3,93.6,21.5,93.6,21.8z"
			/>
		<path class="st3" d="M31.5,6.9c0.1,0.2,0.1,0.5,0.1,0.7c0,2.9,0,5.8,0,8.7c0,0.5,0,1,0.2,1.5c0,0.2,0.1,0.3,0.2,0.5
			c0.3,0.7,0.9,1.2,1.7,1.2c1.1,0.1,1.8-0.3,2.2-1.3c0.3-0.6,0.4-1.3,0.4-1.9c0-0.2,0-0.5,0-0.7c0-2.7,0-5.3,0-8c0-0.2,0-0.4,0-0.6
			c0.1,0,0.1-0.1,0.1-0.1c1.1,0,2.1,0,3.2,0c0.1,0,0.2,0,0.3,0c0,0.1,0,0.2,0.1,0.3c0,0.1,0,0.3,0,0.4c0,4.5,0,9,0,13.4
			c0,0.2,0,0.4,0,0.7c-0.1,0-0.2,0.1-0.2,0.1c-1.1,0-2.2,0-3.3,0c-0.1,0-0.1,0-0.2,0c-0.1-0.3,0-0.7-0.1-1c0-0.3,0-0.6,0-0.9
			c-0.1-0.1-0.2,0-0.2,0.1c-0.3,0.5-0.7,0.9-1.1,1.2c-0.8,0.6-1.7,0.9-2.7,0.9c-0.5,0-1.1,0-1.6-0.2C29.7,21.6,29,21,28.5,20
			c-0.3-0.5-0.4-1.1-0.5-1.7c-0.1-0.5-0.1-1.1-0.1-1.6c0-3,0-6.1,0-9.1c0-0.2,0-0.4,0-0.6c0.3-0.1,0.6,0,0.9-0.1c0.3,0,0.6,0,1,0
			c0.3,0,0.6,0,0.9,0C31,6.9,31.3,6.9,31.5,6.9z"/>
		<path class="st3" d="M68.3,14.4c-2.9,0-5.7,0-8.5,0c-0.1,0.2-0.1,0.3-0.1,0.4c0,0.9,0.1,1.7,0.4,2.5c0.1,0.2,0.2,0.4,0.3,0.6
			c0.8,1.6,2.2,2.3,3.9,2.1c0.9-0.1,1.8-0.5,2.6-1c0.1-0.1,0.2-0.3,0.5-0.2c-0.1,0.6-0.2,1.1-0.2,1.7c0,0.2-0.1,0.3-0.3,0.4
			c-1.3,0.8-2.6,1.3-4.1,1.3c-1,0-1.9-0.1-2.8-0.4c-1.9-0.7-3.1-2-3.8-3.8c-0.4-1-0.6-2.1-0.6-3.2c-0.1-1.4,0.1-2.7,0.5-4
			c0.5-1.3,1.2-2.4,2.4-3.2c0.9-0.6,1.9-0.9,2.9-1c1-0.1,1.9,0,2.9,0.3c1.6,0.5,2.7,1.5,3.3,3c0.4,0.9,0.6,1.9,0.6,2.8
			c0,0.5,0,1,0,1.5C68.3,14.2,68.3,14.3,68.3,14.4z M64.5,12.8c0.1-0.3,0-0.6,0-0.9c0-0.8-0.2-1.6-0.4-2.4c-0.1-0.4-0.3-0.8-0.6-1.1
			c-0.6-0.7-1.4-0.7-2.1-0.4c-0.3,0.2-0.5,0.4-0.7,0.6c-0.2,0.3-0.4,0.7-0.6,1.1c-0.3,0.9-0.4,1.8-0.5,2.7c0,0.1,0,0.2,0.1,0.3
			C61.4,12.8,62.9,12.8,64.5,12.8z"/>
		<path class="st3" d="M54.1,19.3c-0.1,0.6-0.2,1.1-0.3,1.7c0,0.2-0.1,0.2-0.3,0.3c-0.5,0.3-1,0.5-1.6,0.7c-1.5,0.3-3,0.3-4.5-0.2
			c-1.9-0.7-3.2-2-3.9-3.8c-0.3-0.9-0.5-1.8-0.6-2.7c-0.1-1.3,0-2.6,0.4-3.8c0.4-1.3,1.1-2.5,2.2-3.3c1-0.8,2.1-1.3,3.4-1.5
			c1.3-0.2,2.6-0.1,3.9,0.3c0.6,0.2,1,0.4,1.4,0.7c0,0.4-0.3,1.2-0.6,1.8c-0.1-0.1-0.2-0.1-0.3-0.2C53.3,9.2,53.2,9.1,53,9
			c-0.8-0.6-1.8-0.8-2.8-0.7c-0.7,0.1-1.2,0.5-1.6,1c-0.4,0.5-0.7,1-0.8,1.6c-0.3,0.9-0.4,1.9-0.5,2.9c0,0.9,0,1.7,0.1,2.6
			c0.1,0.7,0.3,1.3,0.6,1.9c0.7,1.2,1.7,1.9,3.1,1.9c1,0,1.9-0.2,2.7-0.8c0,0,0.1-0.1,0.1-0.1C54,19.3,54,19.3,54.1,19.3z"/>
		<path class="st3" d="M71.1,21.8c0-5,0-9.9,0-14.9c0.1,0,0.1-0.1,0.2-0.1c1.1,0,2.2,0,3.3,0c0.1,0,0.1,0,0.2,0c0,0.1,0,0.3,0,0.4
			c0,0.9,0,1.7,0,2.6c0,0.1,0,0.2,0,0.5c0.1-0.2,0.2-0.2,0.2-0.3c0.3-0.5,0.5-1,0.8-1.5c0.2-0.4,0.6-0.8,0.9-1.2
			c0.7-0.7,1.6-0.9,2.5-0.9c0.1,0,0.2,0,0.3,0.1c0.1,0.5,0,1,0,1.5c0,0.5,0,1-0.1,1.4c0,0.5,0,1-0.1,1.5c-0.1,0.1-0.2,0-0.3-0.1
			c-1.8-0.8-3.6,0.2-4.1,2c-0.1,0.3-0.1,0.6-0.1,0.9c0,2.4,0,4.8,0,7.3c0,0.2,0,0.4,0,0.6c-0.4,0.1-0.8,0-1.2,0.1
			c-0.4,0-0.8,0-1.2,0C72,21.8,71.6,21.8,71.1,21.8z"/>
		<path class="st3" d="M82,6.9c0.1,0,0.2,0,0.3,0c1.2,0,2.3,0,3.5,0c0,0,0.1,0,0.1,0C85.9,7,86,7,86,7c0,4.8,0,9.7,0,14.5
			c0,0.1,0,0.1,0,0.2c0,0-0.1,0.1-0.1,0.1c0,0,0,0-0.1,0c-1.2,0-2.3,0-3.5,0c-0.1,0-0.1,0-0.2,0c0-0.1,0-0.2,0-0.3
			c0-0.1,0-0.2,0-0.4c0-4.5,0-9,0-13.5C82,7.4,82,7.2,82,6.9z"/>
		<path class="st3" d="M85.9,4.4c-0.6,0.1-3.4,0-3.8,0c-0.1-0.6,0-1.3,0-1.9c0-0.6,0-1.2,0-1.9c0.3-0.1,0.7-0.1,1-0.1
			c0.3,0,0.6,0,1,0s0.6,0,1,0c0.3,0,0.6,0,1,0c0,0.1,0,0.2,0,0.3C86,1.8,86,3.9,85.9,4.4z"/>
		<path class="st3" d="M103.5,5c-1,0.1-2.2-0.8-2.2-2.2c0-1.3,1.1-2.2,2.3-2.2c1,0,2.2,0.7,2.2,2.2C105.7,4.2,104.5,5,103.5,5z
			 M103.5,4.6c1,0,1.8-0.8,1.8-1.9c0-1-0.8-1.8-1.8-1.9c-0.9,0-1.8,0.7-1.9,1.8C101.6,3.8,102.4,4.6,103.5,4.6z"/>
		<path class="st3" d="M103.9,3c0.2,0.4,0.4,0.7,0.6,1c-0.3,0.1-0.4,0.1-0.5,0c-0.2-0.2-0.3-0.5-0.5-0.8c-0.1-0.2-0.3-0.2-0.5-0.2
			c-0.1,0.3,0,0.7-0.1,1c-0.1,0-0.2,0-0.3,0c0,0-0.1-0.1-0.1-0.1c0-0.4,0-2.1,0-2.5c0.4-0.1,0.8-0.1,1.3,0c0.4,0.1,0.6,0.3,0.6,0.6
			c0.1,0.3-0.1,0.6-0.4,0.8C104.1,2.9,104,2.9,103.9,3z M103.1,2.6c0.3,0,0.5,0,0.7,0c0.2,0,0.3-0.2,0.3-0.4c0-0.2-0.1-0.3-0.3-0.4
			c-0.2,0-0.5,0-0.7,0C103,2.1,103,2.3,103.1,2.6z"/>
	</g>
</g>
</svg>
